<?xml version="1.0" encoding="UTF-8"?>
<svg id="Layer_1" data-name="Layer 1" xmlns="http://www.w3.org/2000/svg" viewBox="0 0 226.77 226.77">
  <path d="M222.42,103.28c-1.04-22.76-8.19-44.9-21.97-61.83-10.56-12.97-24.88-22.61-40.37-28.93C116.78-5.17,56.25,2.68,26.87,41.87c-4.36,5.82-8.22,11.75-11.27,18.34-24.86,53.68-3.29,123.79,49.41,151.92,42.03,22.44,94.06,11.88,126.93-21.65,21.29-21.72,31.96-55.08,30.48-87.2Z" fill="#e8e2d9"/>
  <g>
    <g>
      <path d="M160.33,149.78l-9.93.07c-2.28.02-4.44,0-6.71-.04l-8.05-.15-18.02-.02-11.16.03-23.27.04-15.87-.17c-2.54-.03-5.04-.11-7.54-.35-.45-.04-1.18-.55-1.83-.53l-7.81.21c-2.7.07-1.82-3.13-2.18-4.24l-2.78-.38c-.34-.05-.97-.6-1-.96-.25-3.33-.26-6.44-.3-9.78l-.1-8.94c-.01-1,.68-1.72,1.76-1.72l16.19-.08,10.31.04c.55-4.34.57-9.86,5.11-11.58-.66-.98-1.39-2.1-1.85-3.03-.16-.33-.12-1.27-.41-1.51l-3.47-2.91c-2.8-2.35.44-6.11,1.54-8.62,2.25-5.15,4.12-10.32,6.09-15.58,1.44-3.84,2.75-6.99,6.52-8.87,4.56-2.27,8.2-3.4,12.9-5.7,1.21-.59,2.71-1.1,3.59-2.2.82-1.02.45-3.2-.23-4.13-1.94-.64-3.45-1.58-4.06-3.67l-1.11-3.79c-4.74-1.24-12.95-2.48-16.13-6.34-1.11-1.34-.62-3.44.65-4.5,4.12-3.44,12.52-4.33,17.82-4.1l-.34,5.61c7.8,3.83,21.49,3.61,29.29-.04l-.66-5.65c4.61.1,17.37.68,18.93,6.07.52,1.8-.83,3.63-2.45,4.48-4.24,2.21-8.83,3.37-13.55,4.24-2.15.39-1.03,2.86-3.02,5.97-.7,1.09-2.12,1.34-3.29,1.9-.46.98-.57,2.61-.43,3.81,4.9,4.27,12.24,5.28,17.26,8.12,2.38,1.35,3.68,3.39,4.72,5.84l6.87,16.3c1.19,2.83,3.28,4.63,3.55,8.51.04.54-.54,1.31-.97,1.69l-3.95,3.47c-.61,1.93-1.17,3.8-3,4.96,4.83,1.03,4.94,5.85,5.71,10.44.13.8.62,1.05,1.42,1.04l9.13-.12c6.32-.08,12.48-.42,18.81-.21.88.03,1.27.86,1.28,1.62l.03,4.5v14.62c0,.48-.23,1.2-.54,1.56l-4,.07c-.06,1.05-.21,2.58-.98,3.38-.32.33-1.36.65-1.82.66l-9.32.11-7.32.53ZM123.99,55.19c1.55-.39,1.44-1.74,1.69-2.88-.17-.15-1.08.06-1.15.36l-.54,2.52ZM101.27,52.37l-1.17.1c.29,1.08.43,1.9,1.53,2.55l-.36-2.65ZM122.2,64.96c.12-1.14-.81-1.58-1.76-1.74-5-.84-9.94-1.05-14.89.02-1.91.41-2.12,2.02-2.15,1.98.1.09.49.36.65.39,6.13,1.17,12.05,1.11,18.15-.65ZM131.61,112.42l3.54-1.08c.81-.25,2.29-1.17,2.21-2.2l-.28-3.84-1.28-13.28c-.22-2.29-.72-4.38-.59-6.73.09-.42,1.3-.61,1.71-.3l3.04,10.52,1.33,5.07c3.24-.66,6.32-2.84,8.98-4.85-2.75-5.84-5.16-11.65-7.61-17.62-.6-1.45-1.63-3.83-2.89-4.54-2.42-1.37-4.85-2.32-7.42-3.33l-6.23-2.47c-.97-.38-1.95-.37-3.02-.15-6.94,1.4-13.97,1.48-20.93.23-1.26-.22-2.36-.09-3.54.3-3.83,1.27-7.38,2.96-11.02,4.65-1.78.83-3.09,1.82-3.95,3.64-1.17,2.48-2.07,5.04-3.07,7.65l-4.23,11.1c1.31,2.25,5.97,5.21,8.49,5.8l2.62-11.6c.34-1.52.76-3.1,1.25-4.52.5-.09,1.26.12,1.45.43.17.27.39.97.35,1.35l-1.48,15.71c-.23,2.4-1.48,8.17.58,8.91,1.73.61,3.42,1.28,5.27,1.63,11.32,2.1,25.47,2.95,36.69-.46ZM141.46,120.64l1.59-2.52c1.03-2.1,1.98-4.17,3.61-5.92l-5.27.43c-.49,2.6-.41,5.24.07,8.01ZM83.23,112.92c-1.47-.26-2.72-.39-4.19-.47,2.47,3.38,2.76,5.12,4.9,8.58.71-1.25,1.22-7.76-.7-8.11ZM50.27,136.22l-.3-7.17c-.02-.4.19-1.42.56-1.4,1.96.06,3.66.21,5.49.39.69.07,1.24.03,2.07-.03-.06-.96-.15-1.63-.37-2.53l-6.03-.2-4.16-.16.23,5.73.31,9.53,11.62-.04c-.09-1.27-.27-2.29-.58-3.22l-7.77.12c-.37,0-1.05-.63-1.07-1.03ZM156.29,128.74h9.29c.52-.77.56-1.81.2-2.58l-10.22-.14-18.34-.08-9.41.08-3.96.08c-5.1.11-10.03.14-15.12-.07-5.83-.24-11.42-.04-17.29-.03l-19.58.02-9.72-.24c-.02,1.04.04,1.87.22,2.92l17.58.22,5.92.14,17.94-.04,6.38.02,7.65-.05c2.73-.02,5.36.14,8.1.12l9.29-.07,17.87-.12,3.19-.18ZM168.82,137.48c-.44,1.14-.56,2.03-.53,3.17,4,.32,7.75.32,11.74-.02.22-.61.33-1.25.36-1.85l.19-3.56.2-8.15c.02-.72-.48-1.07-1.09-1.08l-9.42-.12c-.37.97-.48,1.88-.27,2.84l7.01.07c.66,0,1.24.61,1.23,1.25l-.11,6.44c0,.3-.22.88-.43,1.04s-.81.22-1.13.21l-7.73-.24ZM149.5,140.62l8.48.08,5.17.06c.39-1.08.56-1.8.6-3l-7.15.09h-32.05s-16.4.04-16.4.04l-14.47-.04-14.3.11-15.46-.41c.08,1.24.17,2.02.36,3.04l11.33-.09,9.39.17,11.35-.02,7.61-.09h13.84s10.72-.11,10.72-.11c4.25-.04,8.32-.11,12.55.11,2.84.15,5.58.03,8.44.06Z" fill="#311116"/>
      <path d="M126.96,18.82c-13.84-1.39-27.78-.9-41.12,2.54-3.65.94-7.06,1.9-10.48,3.35l-4.57,1.93c-4.1,1.73-7.86,3.81-11.54,6.33-2.45,1.68-4.83,3.31-7.05,5.25l-3.12,2.72c-2.03,1.77-5.36,5.61-7.12,7.82-1.57,1.98-2.93,4.05-4.35,6.15-3,4.45-5.18,8.79-7.35,13.69-.66,1.5-1.26,2.89-1.71,4.46-2.21,7.67-2.91,9.74-4.32,17.83-.51,2.91-.6,5.73-.73,8.72-.33,7.37-.45,14.64.53,21.89l.64,4.69c.78,5.74,1.29,5.51,2.16,9.86.8,4.03,2.05,7.79,3.65,11.56,2.19,5.16,3.49,7.6,6.8,12.15.57.78,1.04,1.66,1.76,2.27.88.75,1,1.7.35,2.71-.14.22-.53.62-.77.7-.28.1-.9-.26-1.13-.54-3.43-4.17-6.48-8.62-8.74-13.54-3.23-7.03-5.96-16.44-7.07-24.05-.77-5.29-1.51-10.47-1.55-15.8l-.03-4.49c-.06-9.12.47-15.88,2.65-24.84,1.7-7.01,3.01-11.37,6.03-17.9,2.64-5.7,5.98-10.84,9.76-15.88,8.67-11.56,21.84-21,35.34-26l3.93-1.45c2.49-.92,4.97-1.58,7.56-2.28,12.18-3.27,25.75-4.14,38.31-3.07,9.59.82,18.79,2.94,27.77,6.32,8,3.01,15.51,6.77,22.25,11.96,2.75,2.11,5.33,4.04,7.88,6.47,4.79,4.57,9.12,9.56,12.68,15.17,1.52,2.39,2.89,4.75,4.05,7.32l1.24,2.74,1.59,3.63c1.7,3.89,2.77,7.92,3.79,12.06s1.45,7.76,1.96,11.75c.38,2.92.66,5.61.7,8.61.15,12.22-.62,21.81-3.27,33.74l-.78,3.53-1.63,5.54c-.42,1.43-.96,2.83-1.57,4.21l-1.13,2.58c-2.42,5.52-4.07,9.24-7.89,14.05-.26.32-.64.84-.93.98-.32.16-1.07-.23-1.39-.47-.81-.61-.97-1.49-.35-2.33,4.51-6.18,7.79-12.98,10.11-20.26.67-2.1,1.37-3.98,1.85-6.13l1.13-5.11.97-4.44c.46-2.11.6-4.04.81-6.19,1.13-11.14,1.08-22.2-.61-33.31-.29-1.89-.77-3.56-1.17-5.37l-.96-4.37-1.91-5.82c-1.16-3.52-3.01-7.82-4.89-11.02-2.68-4.57-5.43-8.95-8.91-12.97-1.9-2.19-3.63-4.33-5.81-6.27-2.22-1.98-4.43-3.86-6.82-5.64l-2.32-1.73c-4.73-3.51-11.67-7.17-17.19-9.42-5.49-2.24-10.96-4-16.8-5.08-3.06-.57-5.89-1.16-9.12-1.48Z" fill="#b8692b"/>
      <path d="M126.37,40.06c-7.32,2.8-18.78,2.62-26.3.19-.46-3.89,1.79-11.05,4.2-14.07,2.18-2.73,12.15-1.87,15.55-1.22,2.05.39,2.93,2.02,3.69,3.68,1.55,3.39,3.17,7.61,2.85,11.42ZM108.37,29.48c3.38,1.67,7.38,1.74,10.48-.25.19-.12.45-.55.53-.72.6-1.27-4.15.94-7.32.41l-4.98-.84c.1.85.62,1.08,1.3,1.41Z" fill="#311116"/>
    </g>
    <g>
      <path d="M130.71,188.45c-.22.29-.8.42-1.01.07-.3-.49.71-1.91.69-2.82-.02-.78-.14-1.51-.37-2.35-.7,1.4-1.18,2.75-1.66,4.17-.12.36-.29.66-.53.96-.21.27-.92.37-.99-.02-.13-.64.29-1.23.52-1.78l1.16-2.81.9-2.38c.16-.42.49-.6.95-.55l.36.04c.39.04.27,3.11.52,3.01.04-.02.13-.09.16-.15l.85-2.33c.17-.46.51-.61.99-.58l.37.02c.09,0,.07.28.03.37l-1.7,4.09-.77,2.14c-.11.31-.26.59-.49.88Z" fill="#311116"/>
      <path d="M110.73,185.63c-.33-.02-.5.07-.63.33-.39.79-.75,1.56-1.21,2.32-.23.38-1.14.65-1.35.22-.04-.08.02-.23.08-.32.05-.08,1.47-2.62,1.44-2.56l.61-1.35c.45-.99,1.04-1.87,1.48-2.87.12-.27.35-.39.64-.41.62-.04,1.85-.19,2.27.24.08.08.08.33.06.46l-.61,3.52-.32,1.95c-.1.64-.25,1.64-.96,1.65-.15,0-.47-.14-.5-.3-.1-.64.56-1.93.55-2.79l-1.54-.1ZM112.57,184.69l.4-2.42c-.39-.2-.86-.23-1.22-.04-.35.77-.65,1.49-.9,2.33l1.72.12Z" fill="#311116"/>
      <path d="M104.27,187.55l-.24-2.2c-.22-.03-.67-.02-.76.18-.4.88-.7,1.75-1.01,2.66-.13.37-.38.51-.79.5-1.02-.02-.21-1.39.07-2.05l1.14-2.76.95-2.5c.1-.26.38-.46.66-.45l1.8.02c1.1.01,1.24,1.46,1,2.17-.53,1.58-1.95,1.35-1.95,2.19,0,1.23.21,1.7.23,2.97,0,.18-.15.43-.29.47-.14.05-.51,0-.57-.14-.14-.33-.21-.69-.25-1.06ZM106.05,182.06c-.21-.19-1.19-.47-1.43.12l-.8,2c.94.08,3.09-1.37,2.23-2.12Z" fill="#311116"/>
      <path d="M77.37,188.42c-.29.07-2.76.5-2.55-.22.08-.61.35-1.1.58-1.65l1.15-2.75.93-2.45c.24-.64,1.12-.56,1.44-.45.73.26,1.21.94,1.35,1.71.28,1.56-.14,3.14-1.07,4.42-.45.63-1.04,1.21-1.82,1.39ZM77.75,187.05c.75-.57,1.2-1.23,1.45-2.1.24-.84.56-2.68-.6-3.05-.87,1.91-1.56,3.57-2.24,5.57.54.32.96-.09,1.38-.42Z" fill="#311116"/>
      <path d="M117.56,188.42c-.29.07-2.76.5-2.55-.22.08-.61.35-1.1.58-1.65l1.15-2.75.93-2.45c.24-.64,1.11-.56,1.44-.45.73.26,1.21.94,1.35,1.71.28,1.56-.14,3.14-1.07,4.42-.45.63-1.04,1.21-1.82,1.39ZM117.94,187.05c.75-.57,1.2-1.23,1.45-2.1s.56-2.68-.6-3.05c-.87,1.91-1.56,3.57-2.24,5.57.54.32.96-.09,1.38-.42Z" fill="#311116"/>
      <path d="M146.46,188.05c-.57-1.22.51-2.75,1.22-2.56.19.05.5.25.4.52-.14.36-.81.59-.71,1.1.02.12.19.28.33.34.56.24,1.22-.03,1.44-.61.46-1.2.15-2-.55-3.01-.33-.49-.39-.93-.33-1.51.08-.72.51-1.31,1.33-1.36.74-.04,1.6.04,2.35.18.09.57-.48.99-.99.95l-.96-.06c-.1,0-.29.05-.35.12-.54.61.84,1.78.93,3.99.02.59-.17,1.09-.5,1.55-1.04,1.44-3.17,1.31-3.62.34Z" fill="#311116"/>
      <path d="M141.27,187.71c.7.24,1.73-.08,2.18.21-.2.97-1.2,1-2.05.93l-1.3-.1c-.81-.06.04-1.61.22-2.05l1.15-2.76.9-2.38c.14-.38.47-.6.91-.6.8,0,1.63.05,2.46.17.24.21-.02.83-.38.85l-1.82.08-.56,1.2c-.1.21-.19.4-.28.63l1.33.17c.09.29-.03.56-.17.69-.46.43-.95.06-1.63.26l-.96,2.71Z" fill="#311116"/>
      <path d="M122.7,187.71c.7.24,1.73-.08,2.18.21-.2.97-1.2,1-2.05.93l-1.3-.1c-.81-.06.04-1.61.22-2.05l1.15-2.76.9-2.38c.14-.38.47-.6.91-.6.8,0,1.63.05,2.46.17.24.21-.02.83-.38.85l-1.82.08-.56,1.2c-.1.21-.19.4-.28.63l1.33.18c.09.29-.03.56-.17.69-.46.43-.95.06-1.63.26l-.96,2.71Z" fill="#311116"/>
      <path d="M82.51,187.71c.71.24,1.73-.08,2.18.21-.2.97-1.19,1-2.05.93l-1.3-.1c-.81-.06.04-1.61.22-2.05l1.15-2.76.9-2.38c.14-.38.47-.6.91-.6.8,0,1.63.05,2.46.17.24.21-.02.83-.38.85l-1.82.08-.56,1.2c-.1.21-.19.4-.28.62l1.33.18c.1.28-.03.56-.17.69-.46.43-.95.06-1.63.26l-.96,2.71Z" fill="#311116"/>
      <path d="M91.99,188.73c-1.03.15-.02-1.77.08-1.99l1.6-3.86.33-.66s-.01-.24-.06-.25c-.32-.12-.84.03-1.38-.13.13-.67.66-.99,1.28-.97l2.65.1c.1,0,.29.09.35.16.06.09.04.33,0,.43-.32.85-.97.35-1.58.5-.86,1.96-1.62,3.89-2.32,5.9-.15.42-.5.71-.93.77Z" fill="#311116"/>
      <path d="M135.06,188.73c-1.03.15-.02-1.77.08-1.99l1.6-3.86.33-.66s-.01-.24-.06-.25c-.32-.12-.84.03-1.38-.13.13-.67.66-.99,1.28-.97l2.65.1c.1,0,.29.09.35.16.06.09.04.33,0,.43-.32.85-.97.35-1.58.5-.86,1.96-1.62,3.89-2.32,5.9-.15.42-.5.71-.93.77Z" fill="#311116"/>
      <path d="M97.96,188.47c-.19.26-.88.4-.99.03-.18-.6.26-1.22.48-1.76l1.18-2.86.87-2.32c.18-.48.52-.65,1.06-.61l.32.02c.09,0,.09.28.05.36l-.71,1.71c-.63,1.52-1.26,2.98-1.77,4.55-.11.32-.27.58-.49.89Z" fill="#311116"/>
    </g>
    <g>
      <g>
        <path d="M122.78,162.76c-.29-.02-.48.05-.59.28l-1.08,2.12c-.23.46-.69.77-1.23.67-.08-.01-.25-.12-.29-.19-.09-.21.24-.52.48-1.02.22-.44.43-.86.69-1.27.4-.6.61-1.26.93-1.9.5-.99,1.07-1.9,1.5-2.92.11-.27.35-.38.64-.4.63-.05,1.83-.19,2.27.24.08.08.08.33.06.46l-.63,3.59-.29,1.82c-.09.59-.22,1.52-.78,1.69-.21.06-.57,0-.67-.24-.2-.49.57-2.03.52-2.82l-1.53-.1ZM124.61,161.81l.4-2.42c-.4-.2-.9-.23-1.23,0-.35.78-.63,1.48-.89,2.3l1.72.12Z" fill="#311116"/>
        <path d="M109.43,162.83c-.33-.02-.5.07-.63.33-.39.79-.75,1.56-1.21,2.32-.23.38-1.14.65-1.35.22-.04-.08.02-.23.08-.32.05-.08,1.47-2.62,1.44-2.56l.61-1.35c.45-.99,1.04-1.87,1.48-2.87.12-.27.35-.39.64-.41.62-.04,1.85-.19,2.27.24.08.08.08.33.06.46l-.61,3.52-.32,1.95c-.1.64-.25,1.64-.96,1.65-.15,0-.47-.14-.5-.3-.1-.64.56-1.93.55-2.79l-1.54-.1ZM111.27,161.89l.4-2.42c-.39-.2-.86-.23-1.22-.04-.35.77-.65,1.49-.9,2.33l1.72.12Z" fill="#311116"/>
        <path d="M72.99,162.83c-.33-.02-.5.07-.63.33-.39.79-.75,1.56-1.21,2.32-.23.38-1.14.65-1.35.22-.04-.08.02-.23.08-.32.05-.08,1.47-2.62,1.44-2.56l.61-1.35c.45-.99,1.04-1.87,1.48-2.87.12-.27.35-.39.64-.41.62-.04,1.85-.19,2.27.24.08.08.08.33.06.46l-.61,3.52-.32,1.95c-.1.64-.25,1.64-.96,1.65-.15,0-.47-.14-.5-.3-.1-.64.56-1.93.55-2.79l-1.54-.1ZM74.83,161.89l.4-2.42c-.39-.2-.86-.23-1.22-.04-.35.77-.65,1.49-.9,2.33l1.72.12Z" fill="#311116"/>
        <path d="M92.42,165.79c-.36.16-.97.19-1.3.02-.74-.38-.96-1.31-.7-2.06.2-.6.47-1.12.71-1.7l1.02-2.41c.47-1.1,1.41-1.76,2.59-1.78.67-.01,1.21.39,1.32,1.09.07.42-.03.9-.21,1.31l-1.64,3.69c-.36.8-.92,1.46-1.79,1.84ZM93.25,163.52c.43-.96.78-1.9,1.16-2.88.19-.49.42-1,.29-1.55-.04-.17-.49-.2-.66-.14-.46.18-.71.98-.9,1.41l-.83,1.81c-.2.43-.96,2.07-.56,2.36.49.35,1.24-.4,1.51-1.01Z" fill="#311116"/>
        <path d="M129.64,165.79c-.36.16-.97.19-1.3.02-.74-.38-.96-1.31-.7-2.06.2-.6.47-1.12.71-1.7l1.02-2.41c.47-1.1,1.41-1.76,2.59-1.78.67-.01,1.21.39,1.32,1.09.07.42-.03.9-.21,1.31l-1.64,3.69c-.36.8-.92,1.46-1.79,1.84ZM130.47,163.52c.43-.96.78-1.9,1.16-2.88.19-.49.42-.99.29-1.55-.04-.17-.5-.2-.66-.14-.47.18-.72,1.02-.93,1.46l-.81,1.76c-.2.43-.96,2.07-.56,2.36.49.35,1.24-.4,1.51-1.01Z" fill="#311116"/>
        <path d="M117.78,163.14c1.26.12-.4,2.07-.77,2.44-.25.25-.58.35-.93.41.18.69-.29,1.32-.98,1.34-.37.01-.75-.3-.71-.7.02-.16.36-.37.48-.34.08.1.19.27.26.3.11.04.31-.17.32-.28.02-.12-.06-.39-.17-.46-.84-.57-1.23-1.48-1.03-2.49.12-.6.36-1.15.61-1.72l1.15-2.61c.42-.96,1.47-1.31,2.46-1.05.38.1.73.32.89.59.23.39.12.78.03,1.18-.12.54-.58.92-1.16.72-.13-.31.56-1,.16-1.3-.52-.38-1.2-.1-1.46.45l-1.32,2.84c-.36.77-.47,2,.32,2.25.69.22,1.09-.68,1.35-1.2.11-.22.29-.39.51-.37Z" fill="#311116"/>
        <path d="M84.07,165.25c-.57-1.22.51-2.75,1.22-2.56.19.05.5.25.4.52-.13.35-.81.59-.71,1.1.02.12.19.28.33.34.56.24,1.22-.03,1.44-.61.46-1.2.15-2-.55-3.01-.33-.49-.39-.93-.33-1.51.08-.72.51-1.31,1.32-1.36.76-.04,1.58.05,2.36.17.06.6-.47.99-1,.96l-.96-.06c-.1,0-.29.05-.35.12-.54.62.84,1.78.93,3.99.02.59-.17,1.09-.5,1.55-1.04,1.44-3.17,1.31-3.62.34Z" fill="#311116"/>
        <path d="M77.83,165.25c-.57-1.22.51-2.75,1.22-2.56.19.05.5.25.4.52-.14.36-.8.58-.71,1.1.02.12.19.28.33.34.56.24,1.22-.03,1.44-.61.46-1.2.15-2-.55-3.01-.33-.49-.39-.93-.33-1.51.08-.72.51-1.31,1.33-1.36.74-.04,1.6.04,2.35.18.1.57-.48.99-.99.95l-.96-.06c-.1,0-.29.05-.35.12-.54.61.84,1.78.93,3.99.02.59-.17,1.09-.5,1.55-1.04,1.44-3.17,1.31-3.62.34Z" fill="#311116"/>
        <path d="M98.47,164.81c1.12.35,1.21-1.63,1.89-1.57.17.02.51.17.49.37-.06.67-.97,1.98-1.62,2.33-.4.21-1.03.2-1.43-.03-.79-.46-1.13-1.41-1-2.3.1-.64.34-1.19.59-1.77l1.16-2.65c.42-.97,1.46-1.35,2.47-1.1.38.09.73.32.89.57.24.39.13.78.05,1.18-.11.54-.56.93-1.13.76-.24-.25.52-.98.15-1.28-.51-.42-1.22-.13-1.48.42l-1.35,2.91c-.36.76-.36,1.95.32,2.17Z" fill="#311116"/>
        <path d="M103.69,165.67c-.19.26-.88.4-.99.03-.18-.6.26-1.22.48-1.76l1.18-2.86.87-2.32c.18-.48.52-.65,1.06-.61l.32.02c.09,0,.09.28.05.36l-.7,1.71c-.63,1.52-1.26,2.98-1.77,4.55-.11.32-.27.58-.49.89Z" fill="#311116"/>
        <path d="M126.52,156.94c-.47.4-1.02.45-1.54.21-.77-.35-1.14.38-1.35-.09-.06-.14.02-.34.17-.43,1.2-.75,1.38.51,2.36-.12.13-.03.31.22.38.43Z" fill="#311116"/>
      </g>
      <g>
        <path d="M147.18,165.95c-.36.16-.97.19-1.3.02-.74-.38-.96-1.31-.7-2.06.2-.6.47-1.12.71-1.7l1.02-2.41c.47-1.1,1.41-1.76,2.59-1.78.67-.01,1.21.39,1.32,1.09.07.42-.03.9-.21,1.31l-1.64,3.69c-.36.8-.92,1.46-1.79,1.84ZM148.01,163.68c.43-.96.78-1.9,1.16-2.88.19-.49.42-1,.29-1.55-.04-.17-.5-.2-.66-.14-.47.18-.72,1.02-.93,1.46l-.83,1.81c-.2.43-.93,2.02-.54,2.31.49.35,1.24-.4,1.51-1.01Z" fill="#311116"/>
        <path d="M141.21,165.78c-.29.07-2.76.5-2.55-.22.08-.61.35-1.1.58-1.65l1.15-2.75.93-2.45c.24-.64,1.11-.56,1.44-.45.73.26,1.21.94,1.35,1.71.28,1.56-.14,3.14-1.07,4.42-.45.63-1.04,1.21-1.82,1.39ZM141.59,164.41c.75-.57,1.2-1.23,1.45-2.1s.56-2.68-.6-3.05c-.87,1.91-1.56,3.57-2.24,5.57.54.32.96-.09,1.38-.42Z" fill="#311116"/>
        <path d="M151.47,165.41c-.57-1.22.51-2.75,1.22-2.56.19.05.5.25.4.52-.14.36-.81.58-.71,1.1.02.12.19.28.33.34.56.24,1.22-.03,1.44-.61.46-1.2.15-2-.55-3.01-.33-.49-.39-.93-.33-1.51.08-.72.51-1.31,1.32-1.36.76-.04,1.58.05,2.36.17.06.59-.47.99-1,.96l-.96-.06c-.1,0-.29.05-.35.12-.54.62.84,1.78.93,3.99.02.59-.17,1.09-.5,1.55-1.04,1.44-3.17,1.31-3.62.34Z" fill="#311116"/>
      </g>
    </g>
    <g>
      <path d="M76.82,178.57c-.07-.55-.28-2.58-1.09-2.39-1.23.3-2.42.69-3.62,1.17l-.26.95c-.32,1.17-1.2.79-3.3.79-.15,0-.41-.1-.47-.22s-.11-.47-.06-.63c.51-1.6,1-3.34,1.38-5.04.35-1.54.62-3.01,1.07-4.52.11-.36.5-.59.85-.59l5.8-.02c.6,0,.94.32,1.11.84.57,1.74,1.11,4.91,1.36,6.78.13.99,1.03,3.41.12,3.41h-2.36c-.29,0-.5-.26-.54-.55ZM75.81,173.33c-.05-.92-.11-1.65-.41-2.38-.71-.1-1.4-.09-2.11-.01-.36,1.06-.63,2.07-.75,3.16.19.12.56.16.75.1l2.52-.87Z" fill="#b8692b"/>
      <path d="M171.66,175.41c-.52,2.63-3.52,4-5.97,3.63-.8-.12-1.64-.18-2.35-.55-1.05-.54-1.66-1.51-2.17-2.54-.85-1.71-.97-3.63-.14-5.37.74-.74,1.47-1.44,2.3-2.06.71-.53,1.61-.65,2.47-.8s1.64-.03,2.46.27c.93.33,1.76.73,2.4,1.51.94,1.68,1.86,4.03,1.01,5.91ZM168.03,174.98c.59-.57,1.13-2.47.12-3.48-.89-.89-3.05-.47-3.74.67-.54.88-.53,2.29.32,3.01.92.78,2.44.63,3.3-.2Z" fill="#b8692b"/>
      <path d="M89.6,179.15c-1.2.01-.99-3.37-2.23-2.86l-1.37.57c-.2.4.08,2.13-.45,2.19-1,.12-2.88.42-2.88-.69l-.02-4.73c0-1.56-.02-3.08.07-4.63.04-.59.5-.96,1.04-.97l3.98-.07c2.39-.04,3.39.2,4.31,2.21.63,1.37.67,3.03-.43,4.17-.15.16-.62.41-.56.64l.47,1.71c.37,1.35,1.18,2.44.24,2.45l-2.16.02ZM88.67,172.72c.53-.46.29-1.61-.25-1.94-.64-.39-2.5-.4-2.52.42l-.04,2.24c0,.1.09.28.17.34.3.2,2.2-.68,2.64-1.06Z" fill="#b8692b"/>
      <path d="M101.87,179.15c-1.2.01-.99-3.37-2.23-2.86l-1.37.57c-.21.4.07,2.13-.46,2.19-1,.12-2.88.42-2.88-.69l-.02-4.73c0-1.56-.02-3.08.07-4.63.04-.59.5-.96,1.04-.97l3.98-.07c2.39-.04,3.39.2,4.31,2.21.63,1.37.67,3.03-.43,4.17-.15.16-.62.41-.56.64l.47,1.71c.37,1.35,1.18,2.44.24,2.44l-2.16.02ZM100.94,172.72c.53-.46.29-1.61-.25-1.94-.64-.39-2.5-.4-2.52.42l-.04,2.24c0,.1.09.29.17.34.3.2,2.2-.68,2.64-1.06Z" fill="#b8692b"/>
      <path d="M155.52,179.15c-1.2.01-.99-3.37-2.23-2.86l-1.37.57c-.2.4.08,2.13-.45,2.19-1,.12-2.88.42-2.88-.69l-.02-4.73c0-1.56-.02-3.08.07-4.63.04-.59.5-.96,1.04-.97l3.98-.07c2.39-.04,3.39.2,4.31,2.21.63,1.37.67,3.03-.43,4.17-.15.16-.62.41-.56.64l.47,1.71c.37,1.35,1.18,2.44.24,2.45l-2.16.02ZM154.59,172.72c.53-.46.29-1.61-.25-1.94-.64-.39-2.5-.4-2.52.42l-.04,2.24c0,.1.09.29.17.34.3.2,2.2-.68,2.64-1.06Z" fill="#b8692b"/>
      <path d="M65.61,178.55c0,.22-.34.55-.54.56l-1.9.04c-.44,0-.79-.36-.8-.78l-.03-3.77c-1.07.29-1.83.53-2.78.86-.22.08-.39.63-.39.88l-.06,2.16c0,.18-.25.58-.45.59-1.12.06-2.77.36-2.78-.73l-.03-5.69c0-1.24.01-2.45.08-3.67.03-.55.45-.93.94-.96l1.52-.1c1.43-.1.61,3.37.9,4.53.02.1.34.16.44.13l2.27-.66c.18-.05.32-.46.33-.65l.11-2.37c.02-.48.47-.86.9-.88l1.63-.1c.41-.03.67.33.7.72.12,1.7.07,3.34.03,5.04l-.11,4.86Z" fill="#b8692b"/>
      <path d="M47.36,175.16c.92.82,2.32.62,3.21-.05.34-.25.72-.33,1.07-.03.56.47,1.09.98,1.6,1.52,1.11,1.17-2.34,2.4-3.58,2.48-1.14.07-2.37-.08-3.43-.48-2.26-.87-4.13-5.35-2.49-7.96.53-.85,1.48-1.47,2.24-2.09.7-.57,1.62-.65,2.46-.81s1.58-.04,2.38.24c1.14.39,2.17.92,2.81,2.01.21.36.06.86-.26,1.15-.78.68-1.54,1.45-2.21,2.21-.13.14-.49.41-.62.29l-.81-.78c-.62-.6.06-1.19-.19-1.61-.27-.45-1.93-.06-2.55,1.08-.46.84-.42,2.14.36,2.84Z" fill="#b8692b"/>
      <path d="M175.56,178.36c-.36-.19-2.25-1.75-1.5-2.67.5-.61,1.35-1.87,2.01-1.13.61.69,1.27,1.32,2.15,1.65.51.19,1.33.03,1.75-.3.27-.22-.08-.77-.33-.88l-3.01-1.35c-.59-.27-1.17-.72-1.64-1.14-.96-.87-1.01-2.12-.33-3.19.52-.81,1.37-1.24,2.34-1.48,1.66-.4,3.31-.13,4.94.36.25.08.56.19.73.35.16.14.18.59.12.82l-.32,1.2c-.05.19-.25.49-.42.55s-.58.03-.74-.06c-.86-.46-2.39-1.39-3.33-.42-.12.12.11.5.26.57l3.42,1.42c1.49.62,2.41,2.25,1.79,3.82-.56,1.42-1.75,2.64-3.33,2.79s-3.16-.19-4.57-.92Z" fill="#b8692b"/>
      <path d="M110.83,175.02c-.31.03-.29,1.02,0,1.08l4.02.08c.37,0,.7.42.72.74l.11,1.44c.03.4-.27.71-.68.73-1.22.07-2.4,0-3.63,0h-3.36c-.5-.01-.81-.36-.81-.83l-.02-4.73c0-1.03-.2-4.73.45-5.26.2-.16.67-.19.94-.19h2.13c1.42,0,2.74-.04,4.17.06.87.06.79,1.63.76,2.32-.03.77-4.13.32-4.85.38-.14.41-.16,1,.02,1.36l3.24.16c.13.88.14,1.65,0,2.54-1.12.03-2.06.01-3.22.11Z" fill="#b8692b"/>
      <path d="M135.37,175.02c-.31.03-.29,1.02,0,1.08l4.02.08c.37,0,.7.42.72.74l.11,1.44c.03.4-.27.71-.68.73-1.22.07-2.4,0-3.63,0h-3.26c-.48,0-.79-.37-.79-.83l-.03-5.59c0-.85-.17-4.45.64-4.53,2.25-.07,4.67-.13,6.85,0,.4.02.76.39.79.77l.11,1.34c.02.26-.29.58-.56.6-1.31.1-2.52.08-3.86,0-.13,0-.49.05-.55.16-.04.32-.02.93.07,1.2l3.27.16c.13.88.14,1.65,0,2.54-1.12.03-2.06.01-3.22.11Z" fill="#b8692b"/>
      <path d="M125.26,178.48c0,.25-.3.62-.52.62l-2,.04c-.4,0-.71-.39-.71-.78l-.05-7.11-3.27-.11c-.23,0-.48-.25-.58-.45l-.02-2.09c0-.38.42-.68.78-.68l5.76-.03c1.22,0,2.36.03,3.58.08.37.02.89.33.93.7l.17,1.78c.02.26-.21.7-.49.73-1.17.12-2.22.13-3.43.14l-.06,2.58-.09,4.58Z" fill="#b8692b"/>
      <path d="M145.38,179.11l-2,.03c-.41,0-.7-.39-.72-.78l-.03-5.58c0-1.28.01-2.52.08-3.78.03-.55.45-.93.94-.96l1.51-.1c.47-.03.77.26.8.74.12,1.71.06,3.39.02,5.11l-.09,4.7c0,.24-.31.61-.52.62Z" fill="#b8692b"/>
    </g>
  </g>
</svg>