<?xml version="1.0" encoding="UTF-8"?>
<svg id="Layer_1" data-name="Layer 1" xmlns="http://www.w3.org/2000/svg" viewBox="0 0 816.25 1139.03">
  <g id="bgzmjm">
    <g>
      <path d="M633.04,814.14c.96-20.3.34-40.14-.06-60.44l-.76-37.84-.81-38.44-.79-43.12-.82-42.25c-.38-19.55-.36-38.59,0-58.13l.74-39.22.96-14.88-.06-90.17-.63-32.72.33-61.03c0-1.18-.7-3.28-1.49-3.8-.79-.52-2.9-.79-4.09-.75l-22.02.64c-5.55.16-10.91-.16-16.41-.48-4.45-.26-7.83-1.56-11.59-3.61l-32.96-18.01c-12.65-6.91-25.51-11.3-39.33-15.79-33.92-11.03-68.99-17.06-104.78-14.98-30.36,1.77-59.64,6.49-88.63,15.74-18.43,5.88-35.14,14.23-52.57,22.26-3.86,1.78-7.68,3.62-11.43,5.62-1.89,1-3.75,2.04-5.59,3.12-1.07.63-2.1,1.31-3.19,1.9s-2.45.64-3.73.75c-4.81.42-9.65.23-14.45-.09s-9.47-1.12-14.05-.65c-2.49.25-4.98.6-7.48.7-3.29.14-6.59-.03-9.88.09-2.57.09-5.39.53-5.46,3.65l-.56,23.94.04,8.12.61,77.26.84,21.03.65,38.16-.64,30.14-.84,14.85-.31,55.27-.43,26.4-.81,24.95-.77,27.5c-.54,19.2-.52,38.07,0,57.28l.76,28.28.84,28.15.31,63.94-.17,57.98-.19,8.92-.68,23.35c-.17,5.84-.23,11.38-.04,17.2l.72,22.42.82,22.5c.11,3.07.7,6.62,1.53,9.57,4.97.75,9.62,1.78,14.51,1.85,15.05.21,29.57.54,44.49-.27l43.41-2.38c14.72-.81,29.03-.65,43.74-.02l38.07,1.63c14.27.61,28.16.44,42.44.05l30.6-.84c11.88-.33,23.51-.59,35.38-.05l17.93.81,14.79.79c11.82.63,23.49.35,35.34,0l27.46-.79,21.04-.78c9.85-.36,19.49-.71,29.36-.23,2.54.12,4.98.58,6.87-.91,1.61-1.26,2.96-3.9,3.05-6.34.84-24.03.23-47.24-.86-71.3-.78-17.25-.78-33.8.03-50.93l1.69-35.61ZM249.67,475.53l.66-28.85.82-21.83.79-19.48c.58-14.18.69-27.93.29-42.33,1.06-5.26,2.12-10.51,3.19-15.77,6.86-4.95,13.18-8.98,20.39-13.18,13.03-7.6,25.6-15.48,39.74-20.97,23.59-9.16,59.94-15.63,84.92-15.42l12.57.11c20.05.17,39.2,4.13,58.4,9.39,8.01,2.19,15.79,3.49,23.44,6.53,10.85,4.32,20.93,9.51,31.2,14.94,2.97,1.57,5.67,3.72,8.49,5.54,8.13,5.26,15.93,10.51,23.34,16.78l.35,24.97c.28,20.48,1.82,40.37,1.12,60.78l-1.09,31.74-.58,38.79.02,63.69c0,7.99.12,15.44.03,23.35l-.38,34.08c-3.08.22-5.85.71-8.73.7l-75.59-.22c-9.14-.03-17.55-.04-26.69,0l-81.97.4-94.79.19c-6.11.01-11.41.93-17.8.07l-.64-43.84-.8-26.44-.81-43.24c-.25-13.65-.2-26.78.11-40.48ZM559.64,787.65l-1.09,47.4-.82,34.61-.53,14.33-16.01.52-13.24.84-18.08.81c-20.47.92-40.67.86-61.13,0l-20.26-.86c-20.53-.87-40.77-.51-61.31.05l-26.25.71c-6.61.18-12.94.34-19.57.02l-19.59-.94-12.59-.7c-8.18-.45-16.07-.29-24.33-.13-3.47.07-12.31,2.93-12.37-.89l-.5-29.53-.8-27.42-.85-26.43c-.66-20.63-.58-40.79.02-61.4l.85-28.83.5-71.04,17.7-.18-.18,14.17.38,31.42,24.58-.39,20.05-.78.19-44.09,10.11-.05-.16,44.48,8.13.56,38.24.14.13-45.09,10.12-.14-.29,45.24,46.48.07.14-39.86.74-5.55,9.42.2-.22,45.15,46.41.03.08-38.33.75-7,9.45.12-.31,45.15,11.24-.34c5.96-.18,11.92-.28,17.97-.04l15.61.61.46-12.8.58-32.62h18.33s.74,44.87.74,44.87l.48,27.98c.44,25.58,1.18,50.38.59,75.99Z" fill="#743744"/>
      <path d="M684.92,214.86c-1.03-1.85-3.58-2.85-6.04-2.9l-25.15-.51-53.05-.35-17.78-10.5c-21.66-12.8-72.57-28.78-98.26-35.14-29.98-7.42-60.31-9.55-91.11-6.83l-31.78,2.81c-50.28,4.44-99.92,21.67-143.22,47.39l-80.54.06c-5.13,0-8.13,5.02-7.24,9.41,1.98,9.79,5.77,18.85,11.77,26.76,7.53,9.93,20.99,4.92,29.11,17.11,2.5,3.75,3.72,8.6,4.79,13.24,2.09,9.04,15.43,5.9,20.23,5.84,2.1-.03,4.21,0,6.31-.12,3.75-.21,7.49-.82,11.25-1.1,4.54-.33,9.19-.43,13.76-.84s9.29-1.01,13.48-2.95c2.76-1.28,5.51-2.6,8.24-3.93l14.44-7.03c10.52-5.12,20.57-9.94,31.56-13.98,12.18-4.48,23.81-9.24,36.66-11.81,18.79-3.76,37.23-6.04,56.37-7.95,13.45-1.34,26.14-.86,39.4.44,14.39,1.41,28.26,2.2,42.51,4.8,17.96,3.28,34.24,9.45,51.09,16.21,20.92,8.4,40.27,18.08,60.26,28.38,8.44,4.35,19.59,2.37,28.46,2.23l19.8-.32c2.71-.04,4.94-4.01,5-6.67.17-7.23,3.29-13.37,10.01-16.81,9.61-4.93,16.64-1.51,22.59-10.24,3.4-4.98,6.8-9.91,9.72-15.17l6.78-12.24c1.33-2.4,1.87-4.95.58-7.27Z" fill="#743744"/>
      <polygon points="427.75 570.98 427.94 609.44 380.86 609.72 380.89 556.3 427.14 556.33 427.75 570.98" fill="#743744"/>
      <polygon points="371.01 579.19 371.56 609.78 324.41 609.64 324.38 556.3 370.45 556.32 371.01 579.19" fill="#743744"/>
      <path d="M370.62,484.9l-46.8-.07.08-52.28c3.02-.86,5.75-.81,8.89-.37l37.93.16-.1,52.56Z" fill="#743744"/>
      <path d="M370.56,422.81l-26.49.09c-6.99.02-13.05-.24-20.24-.76l.34-16.38.45-36.05,46.26.12c.11,2.05,0,3.61,0,5.36l-.31,47.63Z" fill="#743744"/>
      <path d="M380.31,484.92l-.05-25.03c.63-4.21.55-8.36-.01-12.57l.12-15.02h46.83s0,52.64,0,52.64l-46.88-.02Z" fill="#743744"/>
      <polygon points="427.19 546.75 380.89 546.88 380.5 533.82 380.39 494.22 427.22 494.24 427.19 546.75" fill="#743744"/>
      <path d="M484.54,608.86l-40.73.14c-2.11.4-3.89.45-6.42.22l-.03-52.8,46.12-.12.57,20.74.49,31.82Z" fill="#743744"/>
      <path d="M370.79,494.32l-.13,52.51-46.32-.05-.05-52.85c9.28-.28,18.13-.17,27.26.01l19.24.38Z" fill="#743744"/>
      <path d="M427.11,422.92l-46.73-.14c-.28-5.98-.2-11.35.32-17.06l.24-35.42h46.78c.16,3.76.04,6.91-.47,10.4l-.14,42.21Z" fill="#743744"/>
      <path d="M483.66,422.86l-46.72-.02c-.26-3.98-.14-7.18.24-10.84l.27-41.68h46.59c.26,3.96.18,6.95-.31,10.37l-.07,42.16Z" fill="#743744"/>
      <polygon points="483.65 546.8 437.3 546.91 437.21 494.26 483.67 494.25 483.65 546.8" fill="#743744"/>
      <polygon points="483.63 484.9 437.24 484.97 437.21 432.4 483.66 432.32 483.63 484.9" fill="#743744"/>
      <path d="M538.35,546.85h-44.58s-.15-52.41-.15-52.41l28.99-.26c5.57-.8,10.64-.6,16.36.48.3,7.64.21,14.31-.33,21.63l-.28,30.57Z" fill="#743744"/>
      <path d="M287.16,609.39l-15.17-.65-1.32-23.64c-.51-9.17-.27-18.6-.27-27.83.84-.69,2.92-1.7,3.84-1.7l39.8.14.57,26.96c.19,9.04.54,17.64.54,26.99l-28-.27Z" fill="#743744"/>
      <path d="M298.11,546.81l-27.7.23-.5-20.09-.34-30.18c.21-.92,1.42-3.16,2.38-3.15l42.32.15-.1,52.44c-5.94-.06-10.55-.05-16.07.6Z" fill="#743744"/>
      <path d="M538.51,484.99c-12.56.35-18.3-1.32-30.5-.51-5,.33-9.57.49-14.84.24l.12-52.27,15.46.28,28.88-.41.47,24.86.41,27.81Z" fill="#743744"/>
      <path d="M521.26,422.48l-27.77.39c-.55-5.25-.03-10.19.06-15.57l.63-36.92c9.23.07,17.87.02,26.56-.32l15.51-.61c.52.81,1.26,2.39,1.31,3.22l.71,11.03.03,39.18-17.04-.41Z" fill="#743744"/>
      <polygon points="314.17 483.95 300.07 484.64 270.19 485.01 270.58 431.69 314.29 431.76 314.17 483.95" fill="#743744"/>
      <path d="M271.24,423.15l-.46-11.17c-.58-14,.49-19.15.24-32.96.13-3.28.56-6.34,1.52-9.39l41.84.04-.18,52.34-17.38.63-25.58.52Z" fill="#743744"/>
      <polygon points="537.33 594.09 536.88 608.11 507.9 608.41 493.74 608.79 493.87 556.46 506.3 556.8 537.82 556.34 537.33 594.09" fill="#743744"/>
      <path d="M427.76,360.9l-45.94.03c-.54-.69-1.52-2.42-1.53-3.15l-.47-36.22c11.87-1.15,23.45-1.66,35.09-.92l13.02.57-.17,39.69Z" fill="#743744"/>
      <path d="M484.25,360.73l-46.71.2-.63-17.49-.39-21.9c16.84,2.09,32.42,6.07,47.75,12.96l-.03,26.24Z" fill="#743744"/>
      <path d="M370.82,360.73l-46.34.04-1.2-25.96c15.83-5.22,30.81-9.62,47.84-12.56.43,4.41-.11,8.52-.13,12.85l-.16,25.63Z" fill="#743744"/>
      <path d="M526.05,360.56c-14.09-.8-18.78.4-32.05.32l-.61-8.98c-.33-4.88-.34-9.74-.02-14.82,15.07,5.94,27.41,13.53,39.79,22.94-2.39,1.15-4.43.7-7.11.55Z" fill="#743744"/>
      <path d="M314.39,359.94l-16.02.73c-8.43.38-16.56.61-25.46-.1,13.51-9.34,25.86-16.43,41.17-22.94l.31,22.32Z" fill="#743744"/>
      <path d="M537.39,867.69l-18.45.32-11.14-.02-44.59-.36c-1.42-.9-3.03-3.5-3.03-5.5l-.03-86.95c0-2.13.69-4.52,1.64-6.31l27.73-.41c9.24-.14,18.14-.2,27.35,0l19.32.41c2.59.06,3.78,2.25,3.8,4.67l.52,48.24c.15,14.35.03,29.19-.43,43.43-.03.87-1.89,2.45-2.71,2.47ZM526.83,783.88c1.49-.04,3.91-.33,4.38-1.37s.91-2.93,1.04-4.15l-14.65-.48c-15.89-.52-31.28-.51-47.35.3-1.7,1.01-3.01,3.95-2.89,6.16l46.43-.15,13.03-.32ZM529.51,794.78c1.84-1.6,3.34-4.02,2.9-6.19l-61.34.06c-2.2,0-4.02,4.03-3.89,6.16l62.34-.03ZM529.81,805.63c1.65-2.3,2.53-3.87,3.2-6.24l-60.42-.05c-3.17,0-5.5,2.82-5.2,6.28h62.42ZM527.88,816.61c3.18,0,4.75-3.76,4.95-6.1l-21.35-.49c-10.1-.23-20.05-.79-30.24-.12l-10.96.72c-1.69.11-3.34,3.91-2.97,5.95l60.57.04ZM529.55,826.92c2,0,3.56-4.34,3.22-6.13l-49.94-.13c-4.4-.01-8.83.35-13.15.9-1.02,1.46-2,3.59-2.51,5.43l62.37-.07ZM529.87,837.85c1.73-2.07,2.47-3.24,3.25-6.15l-62.03.09c-2.2,0-3.91,4.1-3.81,6.1l62.59-.04ZM529.86,848.77c1.51-1.93,2.39-3.37,3.34-6.15l-62.86-.11c-1.81,1.24-3.04,3.8-2.94,6.28l62.46-.02ZM530.14,858.98c1.26-.82,2.8-3.76,3.02-5.21l-20.11-.63c-8.93-.28-17.8-.34-26.73-.01l-15.31.57c-1.98.07-3.52,3.88-2.88,5.98l41.79-.18,20.23-.52Z" fill="#743744"/>
      <path d="M344.23,867.61l-53.74-.31-21.04-.46c-.92-3.47-1.37-7.08-1.37-10.97l-.02-81.47c0-2.13.64-4.5,1.64-6.12l37.31-.5,10.35.05,29.58.4c.67,4.98.87,9.23.91,14l.46,52.2-.38,30.49c-.02,1.23-2.55,2.69-3.69,2.68ZM337.41,783.65c1.33-.03,2.93-4.08,2.77-5.32l-15.29-.47-43.12-.1c-1.48,0-4.19.74-5.07,1.58-.93.88-1.55,3.24-1.29,4.95l40.06-.09,21.94-.56ZM337.52,794.75c1.76-1.72,3.11-3.99,2.8-6.16l-61.95.12c-2.07,0-3.75,4.4-3.28,6.1l62.43-.06ZM337.75,805.63c1.41-1.96,2.2-3.4,3.27-6.2l-62.75-.05c-1.89,1.08-3.25,3.74-3.03,6.23h62.51ZM337.09,816.59c1.96-1.26,3.43-4.15,3.76-6.06l-16.77-.51c-11.64-.35-23.13-.58-34.91-.1l-11.23.46c-1.14,1.45-2.49,3.49-3.63,5.29,1.53.5,2.83.96,3.83.96l58.95-.04ZM337.69,826.98c1.75-1.61,3.03-3.68,3.06-6.2l-47.65-.13c-5.29-.01-10.27.35-15.6.88-1.08,1.48-2.06,3.6-2.43,5.43h62.63ZM337.77,837.86c1.75-2.1,2.49-3.24,3.28-6.15l-62.04.07c-2.28,0-3.99,3.84-3.93,6.1l62.69-.02ZM337.49,848.75c1.79-1.61,3.2-3.98,2.85-6.2l-62.08-.06c-1.96,1.23-3.35,4.03-3.13,6.29l62.36-.03ZM338.47,859.04l2.65-5.3-16.27-.57c-10.55-.37-21.07-.4-31.75-.07l-11.9.36c-1.55.05-3.65.61-4.53,1.82-.68.93-1.08,2.94-.69,4.38l37.32-.14,25.17-.47Z" fill="#743744"/>
      <path d="M440.4,867.59l-53.5-.29-20.97-.44c-.61-.84-1.57-3.3-1.57-4.73l-.03-90.84c0-1.77,1.7-3.04,3.17-3.06l35.15-.46c3.27-.04,6.39,0,9.67.03l28.27.29c1.4.01,3,1.6,3.02,3.04l.4,36.66.27,55.89c0,1.72-2.16,3.91-3.88,3.9ZM433.9,783.76c1.09-1.62,2.09-3.63,2.74-5.43l-15.76-.52-38.45-.13c-2.88-.01-6.25.47-9.06.84-.97,1.34-1.98,3.84-2.35,5.76l41.69-.08,21.19-.44ZM433.34,794.67c1.97,0,4.15-4.97,2.53-6.08l-61.75-.04c-1.69,1.79-2.79,3.81-3.36,6.25l62.59-.14ZM433.44,805.62c1.7-1.72,2.67-3.26,3.42-6.19l-62.27-.04c-1.88.87-3.34,3.72-3.56,6.21l62.41.02ZM432.03,816.55c2.95,0,4.7-4.1,4.55-6.03l-14.89-.59c-12.4-.49-24.47-.7-36.79,0l-10.4.59c-2.04.12-4.25,4.15-3.1,6.05l60.63-.03ZM433.89,826.99c1.7-1.96,2.69-3.57,3.07-6.16l-55.3-.07c-2.27,0-5.24.56-7.62,1.01-1.39.27-2.7,3.58-2.54,5.2l62.39.02ZM433.66,837.8c2.01-.7,3.29-4.35,2.86-6.18h-59.57c-1.44,0-3.57.8-4.26,1.63-.73.88-1.18,3.07-1.15,4.68l62.12-.12ZM433.42,848.73c2.06-1.3,3.74-4.58,2.78-6.16l-61.59.04c-2.05,0-3.51,4.37-3.06,6.19l61.87-.07ZM434.37,859.03c1.18-1.67,2.36-3.69,3.11-5.3l-16.95-.56c-10.3-.34-20.57-.54-31.02-.1l-14.89.63c-1.56.07-3.22,4.13-2.72,5.88l39.37-.06,23.11-.48Z" fill="#743744"/>
      <polygon points="370.84 749.12 323.73 749 323.91 705.55 324.6 692.95 349.22 693.16 370.59 693.56 370.84 749.12" fill="#743744"/>
      <polygon points="427.29 749.05 379.94 749.3 380.18 693.46 427.11 693.5 427.29 749.05" fill="#743744"/>
      <polygon points="483.76 748.38 436.53 748.63 436.73 693.58 483.54 693.51 483.76 748.38" fill="#743744"/>
      <polygon points="314.21 749.08 302.42 748.83 270.73 748.27 269.93 723.04 269.64 692.89 314.2 692.91 313.94 726.5 314.21 749.08" fill="#743744"/>
      <path d="M537.63,747.72l-29.71.16c-5.02.45-9.68.59-14.98.49l.24-54.74,45.4-.11-.39,38.1-.55,16.09Z" fill="#743744"/>
    </g>
  </g>
</svg>