<?xml version="1.0" encoding="UTF-8"?>
<svg id="Layer_1" data-name="Layer 1" xmlns="http://www.w3.org/2000/svg" viewBox="0 0 812.98 974.78">
  <path d="M733.83,538.88c-4.58-9.87-5.47-9.46-10.05-19.33-3.59-7.73-9.68-14.95-18.15-18.79-7.97-3.61-17.75-3.45-26.17-3.95-11.09-.66-20.75.56-25.06,4.63-7.53,7.11-15.34,15.37-18.39,25.47-3.84,12.7,1.22,26.19,9.64,36.12,7.53,8.88,19.46,11.93,29.97,6.65,8.17-4.1,10.71-15.15,15.93-14.46,5.06.68,6.4,13.11-1.31,22.75-5.75,7.19-14.02,10.72-23.62,10.95-8.18.2-16.93-1.26-23.99-6.13-9.18-6.34-16.59-14.78-20.48-24.82s-5.03-21.5-2.51-32.35c2.76-11.88,9.61-21.62,17.53-30.35,3.61-3.97,3.39-7.79,1.22-12.55-7.31-16.04-7-21-3.04-38.48,1.52-6.73,4.16-13.7,5.13-20.86s1.77-14.74.53-21.64c-1.9-10.62-3.46-10.34-5.37-20.95s-.37-10.89-2.27-21.51c-.89-4.98,1.1-7.42,5.71-8.55,10.93-2.68,18.2-6.61,25.22-10.15,7.07-3.57,14.56-7.13,22.15-15.7,6-6.78,5.23-7.46,11.23-14.25,7.69-8.7,12.38-16.88,14.43-25.63,2.06-8.82,1.89-18.44,1.25-29.53-.36-6.28-1.35-14.11-2.33-21.74s-2.72-15.35-6.47-20.61c-7.11-9.98-14.51-19.23-23.43-27.54-6.32-5.89-13.24-8.23-20.22-10.33s-14.21-2.51-22.55-2.98c-8.43-.48-15.2-1.15-21.62.75-6.46,1.91-13.14,4.33-19.75,9.6-10.73,8.55-16.03,21.39-16.74,35.46-.12,2.4,2.55,4.21,3.93,6.22,3.69,5.38,15.53,29.86,9.31,33.46-4.94,2.85-9.28-2.8-12.25-7.02-5.79-8.23-5.5-8.44-11.29-16.67-2.41-3.42-6.88-4.51-10.57-1.98-7.01,4.81-7.52,4.06-14.54,8.87-4.33,2.97-14.73,7.13-25.14,10.3-12.57,3.83-24.25,6.78-24.92,1.19-.16-1.31.96-3.63,2.24-4.5,7.47-5.07,14.45-7.31,22.34-10.51,6.49-2.63,12.77-7.2,21.17-12.9,6.21-4.21,14.25-7.15,18.15-13.8,5.42-9.23,6.8-24.24,2.32-34.94-4.81-11.48-15.62-18-27.3-21.13-5.92-1.59-13.5-1.82-20.29-.45-7.1,1.44-12.92,4.37-14.17,12.2-1.27,7.94-3.97,15.75-7.31,23.18s-7.56,14.44-12.83,20.58c-5.26,6.14-11.35,11.69-18.43,15.81-.97.57-3.34-.52-3.81-1.49-.4-.81-1.9-3.04-1.32-3.97,4.81-7.7,10.42-13.05,14.66-19.3,4.21-6.21,7.65-13,10.63-21.78,2.69-7.93,4.33-14.66,5.77-20.73,1.6-6.78,2.59-13-1.94-20.61-6.27-10.52-14.34-19.45-22.91-28.27-5.5-5.66-11.67-10.83-19.7-14.1-7.38-3-15.27-6.51-23.69-7.48-8.15-.94-16.65.54-24.82,1.52-8.39,1.01-17.06,1.58-24.45,4.64-7.96,3.29-13.94,9.55-19.49,15.24-9.14,9.36-17.83,19.08-24.24,30.39-3.84,6.78-2.39,14.73.2,21.87,4.23,11.66,3.84,11.8,8.07,23.45,2.21,6.09,7.44,13.58,12.28,20.48,7.02,10,13.52,18.74,9.26,20.26-.78.28-3.27,1.44-4.01,1.03-6.28-3.53-11.41-8.63-16.07-13.58-4.69-4.98-8.13-11.09-11.52-17.36-5.06-9.34-8.38-16.19-9.75-21.78-2.56-10.46-1.35-15.1-10.58-18.96-9.1-3.81-18.64-3.44-27.96-.59-10.19,3.12-19,9.4-23.41,17.76-4.4,8.35-3.49,18.84-.39,29.01,2.16,7.09,5.09,12.22,11.55,16.68,5.74,3.96,10.61,9.5,16.78,13.19,3.8,2.27,12.61,4.87,20.57,8.26,9.45,4.03,19.49,8.89,18.5,12.81-1.77,6.96-15.2,2.74-20.74,1.51-11.03-2.46-19.42-6.18-26.12-9.67-13.14-6.86-19.41-12.87-24.2-12.7-1.63.06-4.47,1.14-5.54,2.73-5.27,7.8-9.66,15.4-15.54,22.68-1.98,2.45-6.52,2.55-8.32-.36-3.68-5.94,6.42-26.08,10.81-31.96,2.11-2.82,4.95-5.35,4.1-9.43-1.21-5.84-3.44-11.89-6.63-17.06-6.35-10.29-15.77-17.71-26.66-22.67-9.49-4.31-19.11-5.64-29.4-4.87-12.58.95-24.9,3.7-34.9,11.88-5.29,4.33-9.62,9.43-14.17,14.47-4.54,5.04-9.08,9.97-13.04,15.53-3.74,5.25-5.95,11.43-6.73,17.78-.95,7.78-2.46,15.4-2.81,23.12-.35,7.7.2,15.42.72,23.27.6,9.08,4.38,17.77,9.64,25.04,4.22,5.82,7.29,12.44,11.99,17.72,4.72,5.3,9.29,10.92,14.64,15.71,5.79,5.19,13.38,7.97,19.92,10.15,8.66,2.89,16.33,4.57,20.58,6.97,1.62.92,2.52,3.98,2.23,5.79-1.75,10.88-2.32,21.07-4.69,31.72-2.07,9.33-4.1,16.77-4.02,23.37.11,8.42,3.48,15.3,5.23,23.12,1.5,6.69,3.29,13.99,4.57,23.18,1.18,8.5-2.06,16.93-5.82,24.09-3.61,6.87.78,9.49,6.45,16.8,3.28,4.22,5.48,10.59,8.47,18.59,3.25,8.71,3.81,17.09,2.74,25.59s-2.67,17.31-7.78,24.93c-7.74,11.54-19.47,17.27-33.58,18.55-7.22.66-13.88-.08-19.71-3.57s-11.04-8.38-13.6-15.28c-1.52-4.09-1.22-8.94,2.42-11.89,5.4-4.37,8.72,7.59,17.51,11.97,12.01,5.97,25.39,1.84,32.56-8.95,6.78-10.21,8.19-22.07,3.97-33.85-2.39-6.67-5.93-12.4-9.94-18.19-4.63-6.69-10.9-11.53-19.17-12.02-9.92-.59-21.92-.35-32.45,3.2-10.73,3.61-19.89,10.46-24.52,20.52-4.57,9.94-3.36,10.49-7.94,20.43-3.08,6.69-5.7,12.99-5.99,19.91-.29,6.93,1.42,13.61,3.74,20.55,3.52,10.52,6.31,20.9,12.64,29.98,4.61,6.62,10.64,11.7,17.43,16.36,6.54,4.49,17.15,8.81,28.76,11.25,11.5,2.41,23.3,3.12,31.09,3.44,9.73.4,18.78-2.84,26.49-8.13q12.62-8.65,25.27-17.26c5.43-3.72,10.36-7.75,14.08-13.04,5.26-7.47,7.45-16.89,4.81-25.93-2.51-8.63-4.43-16.93-4.2-26.05.14-5.36.52-31.96,7.27-31.92,5.12.03,5.25,14.14,5.47,18.35.45,8.4.84,16.77,2.78,24.73,1.95,7.99,4.73,15.88,7.59,23.7,2.14,5.85,5.48,11,11,14.06,11.49,6.36,22.06,5.37,30.7,4.98,13.3-.61,22.99-3.29,30.18,2.75,4.03,3.39,5.68,11.08,8.07,20.39,1.73,6.74,4.49,13.71,9.27,20.15,5.18,6.98,11.52,12.2,18.15,17.12,6.87,5.1,13.69,9.74,21.65,12.38,7.96,2.64,16.18,3.14,24.75,3.08,8.19-.05,16.16-1.33,24.49-4.06,6.86-2.25,13.21-4.58,18.6-8.91,5.39-4.33,10.11-9.47,14.28-15.23,7.33-10.13,11.95-21.3,15.42-33.32,4.53-15.73,15.05-14.86,29.84-13.58,6.58.57,14.52-2.46,21.9-4.65,7.64-2.27,14.18-5.26,17.12-12.02,3.9-8.97,6.98-18.02,9.16-27.4,2.18-9.37,4.64-18.8,5.06-28.58.15-3.51.19-12.97,5.07-11.96,6.19,1.28,7.62,20.11,8,25.66.79,11.39-.74,19.4-2.18,25.63-2.11,9.13-5.02,14.73-.45,24.48,3.67,7.82,9.31,13.59,15.75,18.87s13.48,9.54,20.41,14.26c9.45,6.42,16.08,9.58,23.44,10.91,7.24,1.31,14.69.2,25.91-1.4,11.49-1.64,22.81-1.84,33.68-5.76,13.77-4.96,19.07-14.31,26.83-25.73,4.82-7.1,8.38-14.48,11.68-22.44,3.2-7.73,5.21-15.8,5.12-23.7-.09-7.88-2.21-15.93-5.75-23.56ZM651.49,234.23c-9.48-12.5-18.56-3.3-25.4-6.03-2.04-2.72.52-6.3,3.43-8.32,10.46-7.28,23.38-7.04,32.42,2.12,5.87,5.96,9.17,13.84,10.73,21.69,1.54,7.77-.2,15.75-2.72,23.65-2.57,8.06-5.14,15.91-10.32,22.08-5.19,6.18-11.66,11.62-19.22,15.43-3.86,1.95-13.22,8.24-17.55,1.06-4.59-7.62,7.79-14.23,14.99-19.44,10.54-7.61,18.28-18.56,18.93-31.58.37-7.54-.94-14.91-5.3-20.66ZM188.2,304.54c-1.37,2.45-5.13,5.66-8.36,4.18-7.19-3.29-13.05-8.45-19.03-13.62-6.65-5.75-13.7-11.18-17.36-18.82s-5.1-16.5-4.87-25.34c.23-8.94,4.5-17.54,9.94-24.5,5.68-7.28,12.98-13.19,22.58-12.53,6.42.44,18.46,5.61,16.11,13.15-1.4,4.5-10.75-.64-17.89,2.44-7.79,3.36-12.18,9.9-13.21,18.21-.85,6.84-.81,13.85,1.62,20.11,2.42,6.22,6.61,11.96,12.24,16.21,8.3,6.27,8.78,5.63,17.09,11.9,2.49,1.88,2.42,6.33,1.15,8.61ZM437.59,454.15c3.08.05,6.66.47,8.3,2.15,2.19,2.23,1.16,5.95.65,9.27-1.23,7.91-11.09,13.87-17.08,11.52-2.17-.85-4.49-4.51-5.19-7.45-1.92-8.09,5.04-15.62,13.32-15.49ZM384.8,458.57c3.73,4.62,5.92,12.44.27,17.13-5.69,4.72-17.73-1.92-19.1-10-.63-3.72-1.29-8.29,1.77-10.47,5.55-3.94,13.04-1.64,17.06,3.34ZM248.63,384.05c-.62-1.46-.7-4.74.2-5.54,1.03-.91,3.63.69,4.88,1.72,6.82,5.59,16.37,8.03,25.35,10.74,8.79,2.65,17.89,4.33,26.9,3.54,9.28-.81,18.8-2.56,26.31-7.77,6.55-4.54,10.62-12.13,15.62-18.33,5.46-6.77,6.15-14.53,4.32-22.4s-6.53-14.39-12.29-19.76c-6.69-6.24-13.63-10.41-21.94-13.78-10.38-4.22-20.56-6.84-31.84-4.66-12.52,2.43-25.15,5-36.82,10.29-10.55,4.79-21.47,15.79-25.88,10-1.45-1.9-1.92-6.29-.05-8.62,6.39-7.95,14.84-13.94,23.78-18.79,8.81-4.77,18.56-8.01,28.53-10.1,10.02-2.1,20.3-3.35,30.19-3.06,10.22.3,19.98,1.77,29.64,5.28,12.5,4.54,22.92,12.12,31.74,21.98,4.68,5.24,7.86,11.16,9.06,17.88,1.62,9.1.14,19.54-1.11,29.88-1.25,10.35-3.87,20.17-7.51,28.63-2.32,5.39-11.46,28.07-18.91,24.46-1.23-.6-.69-4.26-.35-5.66,1.84-7.42,5.42-8.12,2.68-15.26-7.31,5.41-15.27,9.21-22.81,12.43-8.08,3.45-16.08,5.59-24.73,5.94-8.12.33-16.58-.01-25.45-2.92-6.61-2.17-12.72-5.4-17.89-9.69-5.08-4.21-8.79-9.77-11.61-16.45ZM275.83,336.8c4.33-6.24,11.86-11.7,20.57-12.23,9.89-.6,17.41,4.86,23.09,12.26,5.83,7.6,8.97,17.41,5.06,26.93-4.47,10.87-15.73,17.1-26.74,16.95-11.39-.16-20.19-7.93-24.3-19.04-3.09-8.37-3.08-17.08,2.32-24.87ZM321.77,481.28c-3.07-1.25-16.47,21.78-18.43,25.67-5.46,10.86-10.7,21.04-15.02,32.28-.81,2.1-2.97,6.01-5.18,5.37-3.24-4.41-1.99-10.82-1.61-16.03.6-8.21,3.63-16.19,6.44-24.29,2.75-7.92,5.05-16.22,9.48-23.36,4.53-7.3,9.73-14.27,15.56-20.02,9.62-9.5,13.23-22.71,23.32-21.46,4.25.53,5.21,7.26,3.51,10.81-3.49,7.28-7.19,14.68-4.9,22.78,3.31,11.7,15.38,14.54,17.21,18.28.65,1.34.75,5.23-.56,5.99-3.89,2.25-9.98,1.31-13.94-.86-13.29-7.3-12.49-13.77-15.89-15.15ZM435,648.02c-7.36,4.96-15.18,8.39-23.28,8.8s-16.18-3.26-23.68-7.1-15.13-7.65-19.91-14.84c-4.84-7.29-6.96-15.88-7.46-24.06s2.34-16.4,6.08-23.97,7.96-14.7,15.26-19.56c7.74-5.16,16.41-8.27,24.96-8.65,8.54-.38,17.85,1.24,26.01,5.73,7.23,3.98,12.86,10.7,17.11,17.48,4.31,6.88,6.15,15,6.57,23.11.45,8.68-1.26,16.92-5.04,24.44-3.72,7.39-9.28,13.67-16.61,18.62ZM470.63,552.76c-3.17,4.26-17.25-4.83-21.39-7.42-9.48-5.91-16.26-10.9-24.15-12.33-7.61-1.38-15.96,1.05-27.11,1.86-10.74.78-18.11,3.06-25.14,6.91s-14.28,7.54-23.55,12.06c-1.07.52-3.86,1.02-4.58.11-.82-1.04-1.26-4.78-.33-6.24,4.19-6.57,9.29-12.86,15.35-17.42,6.12-4.61,13.7-7.44,21.06-9.65s15.05-2.32,22.83-1.84c9.86-1.42,19.55-1.09,28.8,1.21,9.34,2.33,18.46,5.93,26.13,12.33,4.22,3.52,16.1,15.02,12.08,20.43ZM525.99,543.38c-1.27,1.47-5.12-1.33-5.78-3.04-4.67-12.1-2.84-12.8-7.51-24.9-4.74-12.27-14.16-21.66-22.47-32.27-1.1-1.41-2.84-1.03-3.42-.03-4.16,7.1-17.73,17.39-26.81,13.16-1.19-.55-3.38-2.58-3.26-3.85.47-5.02,10.01-5.39,15.58-15.46,9.37-16.94-9.1-30.18-1.46-36.4,4.26-3.46,12.64,2.34,15.94,7.61,6.01,9.58,10.28,14.08,15.55,19.94,4.18,4.65,8.55,10.34,13.91,20.99,3.09,6.13,6.49,12.07,8.49,18.5s3.49,13.13,3.87,20.05c.29,5.33,1.24,11.22-2.62,15.7ZM585.51,327.56c-1.84,2.43-5.92,2.91-8.74.98-5.9-4.05-11.06-9.1-17.36-11.81-6.28-2.7-13.58-2.69-20.55-4.35-10.95-2.62-21.6-6.32-32.99-4.3-10.94,1.94-21.94,5.38-31.15,11.35-5.87,3.8-9.83,9.85-13.29,15.6-3.46,5.76-5.12,12.11-5.02,19.26.16,10.83,14.9,25.48,22.54,30.63,7.64,5.15,15.48,8.57,24.26,9.4,8.77.83,17.87.54,26.5-1.88,9.57-2.69,17.55-6.14,25.25-13.12,1.23-1.11,4.86-1.67,5.92-.76s1.85,4.55,1.13,6.17c-3.02,6.81-8.06,12.22-13.6,16.63-5.54,4.4-12.13,7.49-19.18,9.45-8.59,2.39-16.85,3.68-24.83,3.16-8.36-.54-16.15-3.54-23.96-6.94-7.33-3.19-15.8-7.36-22.74-12.78-2.49,7.27,3.35,7.73,5.2,15.19.32,1.3-1.49,3.52-2.45,4.23-4.69,3.51-9.74-6.19-11.9-9.59-4.09-6.41-9.06-12.74-11.47-20.34s-1.96-15.5-2.71-23.25-1.74-15.71-.84-23.22c.94-7.86,2.34-15.39,7.44-21.67,6.16-7.59,13.98-12.93,22.4-17.92,8.84-5.23,18.43-8.46,28.74-9.29,9.52-.77,18.93-.86,28.16-.07,9.32.8,18.39,2.92,27.37,6.22,7.36,2.71,14.93,4.86,21.29,8.91,6.42,4.08,12.68,9.05,17.62,15.19,2.04,2.53.76,6.53-1.03,8.9ZM521.17,377.99c-9.3,3.98-19.54,3.03-27.23-2.82-7.56-5.75-10.04-15.73-8.95-26.03,1.34-12.66,10.51-23.42,23.02-24.77,7.86-.85,15.38,1.97,20.87,6.39s7.92,11.22,8.61,19.28c1.05,12.29-5.29,23.23-16.32,27.95Z" fill="#743744"/>
  <path d="M584.58,657.97c-7.47-11.36-16.4-21.09-26.75-29.94-8.35-7.14-18.6-12.62-29.72-13.15-8.03-.38-28.78,5.28-32.63,13.59-6.23,13.44-5.84,13.62-12.06,27.07-3.43,7.41-7.39,14.27-13.23,19.49-5.8,5.18-12.59,9.72-20.14,12.76-10.95,4.4-22.6,7.24-34.66,8.5-9.18.96-18.56,1.97-27.33-.05-8.86-2.04-17.39-6.22-25.23-10.83-7.81-4.59-15.21-10.37-21.41-17.03-6.13-6.59-7.92-13.66-10.86-20.35-2.75-6.26-5.1-13.21-9.82-21.05-2.52-4.2-11.24-5.7-19.42-6.88-7.62-1.1-15.5-.38-20.26.21-10.59,1.3-19.47,5.2-26.53,12.65-7.79,8.22-13.8,14.72-18.53,22.08-4.54,7.08-8.23,15.17-10.34,26.87-1.71,9.49,17.95,14.02,25.18,14.5,6.69.45,7.58-3.32,12.42,1.31-3.68,8.38-6.51,14.87-8.5,23.65-1.84,8.1-3.52,16.16-4.1,24.31s-1.19,16.49-.42,24.74c.26,2.77,3.89,4.93,5.58,6.14,7.04,5.02,25.42-4.78,34.01-8.64-2.56,11.35-1.11,21.26.53,31.66s4.53,20.93,6.95,31.73c2.75,5.52,6.46,11.94,12.98,12.01,4.91.05,10.02-2.2,15.13-3.75,11.87-3.62,21.6-9.91,30.39-18.79,2.77,9.94,6.13,17.83,10.15,25.3,4.17,7.74,9.55,14.26,17.36,20.9,8.1,6.82,8.47,6.38,16.59,13.18,3.16,2.64,6.42,4.63,10.29,5.89,4.1,1.34,6.85.95,10.19-2.31,9.43-9.2,10.5-8.11,19.93-17.31,8.48-8.28,12.29-14.66,15.98-21.14,3.57-6.27,6.93-12.32,10.34-23.72,7.3,7.2,14.28,12.08,23.22,15.23,7.52,2.65,8.28.54,15.79,3.23,7.54,2.79,15.28.1,17.72-8.15,3.52-11.95,6.85-23.71,8.93-36.13,1.58-9.45,1.16-18.44-.8-28.29,4.88,1.92,12.96,6.78,20.82,9.46,8.78,3,16.02,3.07,17.73-6.54.54-8.55,2.38-16.95,1.75-25.26-.63-8.46-2.39-16.84-4.6-25s-5.64-15.68-9.69-23.35c5.34-4.61,6.93-1.71,13.97-2.2,7.23-.51,24.43-2.75,21.4-13.21-2.31-7.99-3.67-16.38-8.28-23.38ZM283.61,733.08c-1.02.74-2.77,1.43-3.53,1.55-.91.15-1.27-2.64-1.04-3.66,1.3-5.81,4.52-11.84,7.86-17.49,3.85-6.51,7.86-12.8,12.89-18.43,5.06-5.66,10.01-11.49,16.21-15.79,1-.69,4.65-.71,5.3.05,3.31,3.88-6.17,16.42-9.03,20.78-4.05,6.19-7,13.2-11.78,18.69-4.74,5.46-10.81,9.87-16.89,14.29ZM359.59,734.54c-2.12,7.44-4.65,14.76-7.54,21.87-2.9,7.14-7.5,13.45-11.11,20.26s-7.4,13.37-11.63,19.83c-1.39,2.12-3.03,4.23-5.77,5.17-1.77.61-3.26-2.72-3.01-4.35,1.49-9.59,3.66-19.66,6.99-29.44s8.26-18.45,12.78-27.39,8.51-18.92,14.09-26.82c.8-1.13,4.31-2.12,5.49-2.16,6.41-.27.92,18.81-.28,23.02ZM417.14,840.34c-.32,2.25-2.95,6.23-4.91,6.33-2.89.15-3.76-4.16-4.21-7.26-1.2-8.46-2.58-20.85-3.48-33.25-.92-12.72-1.86-25.24-1.44-33.37.36-7-.65-7.05-.29-14.05.61-11.65,1.14-22.92,3.61-34.38.36-1.65,3.9-3.08,5.32-3.04,1.42.04,5.06,1.69,5.34,3.51,1.07,6.9,1.44,13.76,2.28,20.53.85,6.75,1.63,13.58,1.91,20.59.33,8.35-1.18,16.63-1.33,24.85s-.86,16.47-1.52,24.72c-.66,8.21-.1,16.56-1.29,24.82ZM500.01,802.28c-3.47,3.61-12.48-10.83-14.04-13.48-4.34-7.35-7-15.53-10.57-23.22-3.58-7.73-6.77-15.48-9.39-23.58s-5.08-16.09-6.55-24.53c-.34-1.97.24-5.05,1.57-5.46,1.47-.45,4.87.3,5.96,1.84,6.21,8.75,10.58,18.48,15.24,27.97,4.64,9.46,10.18,18.68,13.68,28.83,1.88,5.46,7.46,28.13,4.1,31.63ZM541.43,735.13c-7.26-4.64-13.46-10.44-18.84-16.69s-9.01-14.09-13.68-21.01c-2.2-3.26-10.84-14.2-6.88-17,.9-.64,2.83-.96,3.81-.22,8.34,6.24,16.39,12.78,22.62,20.93s11.77,17.11,15.6,26.79c.95,2.39-.16,5.23-2.63,7.2Z" fill="#743744"/>
</svg>