<?xml version="1.0" encoding="UTF-8"?>
<svg id="Layer_1" data-name="Layer 1" xmlns="http://www.w3.org/2000/svg" viewBox="0 0 893.09 891.17">
  <path d="M791.59,428.3c-4.22-47.51-15.4-90.6-38.36-132.31-17.41-31.63-34.11-62.59-57.08-90.67-34.29-41.9-80.12-68.18-130.8-85.72-95.03-32.9-197.1-23.64-285.31,22.87-57.86,30.5-103.66,73.56-132.05,133-17.28,36.17-33.85,71.16-41.88,110.98-14.81,73.43-.69,146.07,32.97,212.15,18.04,35.42,36.33,67.66,64.61,96.4,25.23,25.65,54.1,46.62,86.27,63.5,42.98,22.55,90.28,30.4,138.75,32.39,59.17,2.43,113.19-12.31,165.48-38.03,45.19-22.24,83.65-49,118.02-86.58,58.92-64.42,87.13-150.9,79.39-237.97ZM380.69,198.04c15.18-6.08,30.28-9.46,46.69-9.79.36,24.1.76,44.3-.22,66.43-1.66,37.58,1.5,72.67-2.58,113.99-22.77-34.67-41.56-65.73-59.88-99.1l-29.3-53.39,45.28-18.13ZM302.9,231.02l82.41,147.01c2.03,3.63,2.65,8.17.79,13.05l-53.95-30.25c-33.73-18.92-66.13-37.4-97.49-58.93,19.17-29.06,37.46-53.02,68.25-70.87ZM359.12,417.55c3.64,2.17,5.88,5.32,7.01,11l-92.69,2.79c-27.12.81-53.66-2.07-81.49-2.91.54-33.75,6.68-66.56,23.42-96.4l143.75,85.53ZM177.79,350.14c-6.4,24.82-10.93,50.13-13.51,75.63-2.73,25.41-3.6,51.28,1.19,76.48,1.55,8.38,3.73,16.65,6.68,24.65l-.98.37c-34.13-52.95-17.09-149.81,12.5-202.15,0,0,1,.32,1,.32-2.5,8.18-4.8,16.42-6.88,24.7ZM162.75,341.65c-3.32,8.07-6.07,16.37-8.12,24.85l-1.03-.22c-3.98-22.59,5.74-46.03,17.55-64.75,6.31-9.39,13.46-20.66,24.59-25,2.39-.91,4.95-1.34,7.39-1.16l.34,1c-4.03,1.48-7.41,4.3-10.14,7.58-2.78,3.28-5.02,7.01-7.12,10.82-8.33,15.35-16.88,30.68-23.46,46.87ZM191.3,464.86l178.63,1.33c-33.08,22.76-62.31,39.55-94.73,57.84l-57.9,32.67-11.73-29.21c-8.04-20.03-14.39-40.47-14.28-62.63ZM275.76,711.72c-12.67-2.24-25.08-6.57-35.5-14.27-15.64-11.67-26-29.42-30.16-48.22-.47-2.1-.8-4.26-1.03-6.49l.9-.54c2.16,3.42,4.33,6.84,6.54,10.23,10.77,16.92,22.93,33.45,39.79,44.74,6.62,4.63,13.54,8.89,20.06,13.69l-.61.86ZM233.71,588.04l156.14-88.71c-15.59,39.03-34.15,69.97-53.3,102.48l-33.01,56.03c-28.06-16.57-52.29-39.9-69.82-69.79ZM429.92,701.14c-34.45.44-65.5-8.23-96.61-24.05l93.04-157.59c8.62,63.04,4.59,120.53,3.58,181.64ZM691.59,382.83c5.43,12.41,5.3,27.14,7.5,42.55-34.46,1.13-67.28,1.1-103.52-.38-25.33-1.03-47.53,3.69-72.11-2.5l85.09-52.75,62.08-34.84,20.96,47.93ZM675.79,558.22l-153.74-92.52c23.51-6.68,42.56-2.53,63.53-4.52,23.65-2.25,47.39-1.01,71.15-.25l41.89,1.34c1.43,33.2-6.7,66-22.83,95.94ZM507.97,388.13c-5.05-2.09-2.49-9.27.89-13.46l79.55-139.21c26.39,19.05,48.84,39.89,67.35,67.76l-147.79,84.91ZM555.72,190.75c12.86.02,25.83,2.16,37.43,7.94,17.42,8.8,30.68,24.51,38.01,42.31.82,1.98,1.53,4.05,2.13,6.21l-.79.69c-2.72-3-5.45-5.99-8.2-8.95-13.52-14.82-28.35-29-46.9-37.22-7.32-3.43-14.87-6.42-22.12-10.03l.45-.95ZM462.99,187.96c33.69.87,67.35,7.85,96.77,27.05l-86.12,147.87-5.7,4.97c-1.22,1.07-4.8-3.91-4.86-6.07-1.73-56.8-2.27-115.74-.09-173.82ZM465.93,700.42c-2.18-34.91-1.12-69.96.56-105.9,1.15-24.58-6.85-46.96,2.2-74.16l61.35,104.44,25.89,48.03c-27.85,15.85-56.33,26.03-90,27.59ZM589.52,657.47l-33.55-57.97c-18.79-32.47-36.22-63.21-53.94-99.98,39.37,18.87,72.56,38.46,107.24,59.27l44.98,26.99c-13.07,21.63-41.62,61.03-64.72,71.69ZM681.26,645.68c-1.16,1.73-3.57,5.12-4.83,6.78-9.25,12.1-20.66,22.69-33.54,30.83l-3.55,2.16-.56-.89c6.89-15.54,20.61-29.9,34.29-39.75,3.67-2.58,7.39-4.93,11.62-6.76l.9.55c-1.04,1.81-3.2,5.35-4.33,7.09ZM664.44,613.68c-2.69,1.94-5.46,3.76-8.29,5.45l-.76-.73,6.28-7.12,5.93-7.41c25.13-32.5,40.38-72.58,43.54-113.51,0,0,.51-9.48.51-9.48l1.05.02c12.01,47.17-9.95,103.51-48.26,132.78ZM769.79,380.49c-6.86-14.49-17.18-37.59-23.89-52.36l-11.55-26.36c-3.87-8.74-7.57-17.58-12.78-25.61l.87-.59c8.34,5.69,14.37,14.46,19.62,22.77,12.62,20.62,22.01,43.05,26.83,66.8.92,4.93,1.68,9.84,1.85,14.92l-.96.43Z" fill="#743744"/>
</svg>