<?xml version="1.0" encoding="UTF-8"?>
<svg id="Layer_1" data-name="Layer 1" xmlns="http://www.w3.org/2000/svg" viewBox="0 0 969.68 272.39">
  <g>
    <path d="M577.77,221.01c-1.21,1.57-4.27,2.24-5.39.39-1.6-2.64,3.83-10.27,3.68-15.13-.13-4.16-.75-8.11-1.98-12.6-3.76,7.49-6.3,14.77-8.91,22.37-.67,1.95-1.55,3.52-2.84,5.17-1.12,1.43-4.92,2.01-5.33-.09-.67-3.41,1.57-6.59,2.79-9.55l6.23-15.08,4.81-12.75c.84-2.24,2.62-3.2,5.08-2.93l1.94.22c2.07.23,1.45,16.7,2.79,16.12.22-.09.72-.46.85-.8l4.58-12.47c.9-2.45,2.74-3.27,5.33-3.09l2,.13c.49.03.38,1.53.19,2l-9.1,21.93-4.11,11.46c-.59,1.64-1.42,3.15-2.61,4.7Z" fill="#743744"/>
    <path d="M470.6,205.91c-1.77-.11-2.71.36-3.38,1.75-2.07,4.26-4.04,8.37-6.5,12.45-1.22,2.02-6.13,3.48-7.23,1.17-.19-.4.09-1.21.41-1.7.26-.41,7.86-14.04,7.71-13.71l3.25-7.22c2.4-5.33,5.6-10,7.96-15.38.64-1.45,1.89-2.1,3.43-2.21,3.32-.24,9.92-1.01,12.17,1.3.41.42.42,1.78.3,2.48l-3.29,18.87-1.7,10.48c-.56,3.45-1.31,8.81-5.15,8.85-.8,0-2.54-.76-2.69-1.63-.56-3.46,2.98-10.37,2.96-14.96l-8.24-.52ZM480.44,200.83l2.15-12.95c-2.08-1.09-4.6-1.26-6.55-.2-1.88,4.11-3.48,8-4.83,12.49l9.23.67Z" fill="#743744"/>
    <path d="M435.96,216.21l-1.27-11.81c-1.2-.15-3.6-.1-4.07.95-2.12,4.72-3.77,9.38-5.43,14.25-.68,2-2.02,2.72-4.24,2.67-5.48-.13-1.12-7.44.36-11l6.14-14.78,5.08-13.39c.53-1.4,2.05-2.44,3.52-2.43l9.67.1c5.91.06,6.65,7.84,5.38,11.64-2.83,8.48-10.48,7.26-10.46,11.74.03,6.6,1.13,9.13,1.26,15.91.02.96-.82,2.29-1.55,2.54-.77.27-2.73,0-3.03-.73-.73-1.79-1.15-3.68-1.36-5.66ZM445.5,186.73c-1.15-1.02-6.4-2.55-7.68.65l-4.3,10.73c5.07.41,16.58-7.32,11.98-11.39Z" fill="#743744"/>
    <path d="M291.69,220.86c-1.56.36-14.82,2.69-13.69-1.17.4-3.25,1.87-5.88,3.1-8.85l6.14-14.77,4.97-13.13c1.3-3.45,5.98-3.02,7.71-2.4,3.93,1.41,6.49,5.02,7.22,9.14,1.49,8.37-.76,16.85-5.72,23.71-2.43,3.37-5.57,6.5-9.74,7.48ZM293.73,213.53c4.02-3.07,6.43-6.57,7.8-11.28s3.03-14.35-3.21-16.35c-4.68,10.27-8.37,19.16-11.99,29.87,2.89,1.74,5.13-.49,7.41-2.24Z" fill="#743744"/>
    <path d="M507.2,220.86c-1.55.36-14.82,2.69-13.68-1.17.4-3.25,1.86-5.88,3.1-8.85l6.14-14.77,4.97-13.13c1.3-3.45,5.98-3.02,7.71-2.4,3.93,1.41,6.49,5.02,7.22,9.14,1.49,8.37-.76,16.85-5.72,23.71-2.43,3.37-5.57,6.5-9.74,7.48ZM509.24,213.53c4.02-3.07,6.43-6.57,7.8-11.28,1.3-4.5,3.03-14.35-3.21-16.35-4.68,10.27-8.37,19.16-11.99,29.87,2.89,1.74,5.13-.49,7.41-2.24Z" fill="#743744"/>
    <path d="M662.22,218.88c-3.05-6.54,2.76-14.74,6.56-13.72,1.01.27,2.7,1.35,2.16,2.81-.73,1.91-4.34,3.14-3.81,5.91.12.63,1,1.51,1.79,1.85,3.01,1.31,6.54-.14,7.73-3.26,2.46-6.43.79-10.71-2.94-16.13-1.79-2.61-2.1-5-1.74-8.1.44-3.88,2.73-7.04,7.11-7.28,3.98-.22,8.56.2,12.61.98.5,3.04-2.56,5.29-5.31,5.12l-5.15-.33c-.54-.03-1.57.26-1.9.64-2.88,3.29,4.5,9.56,4.98,21.4.13,3.19-.91,5.83-2.69,8.3-5.55,7.74-16.99,7-19.41,1.81Z" fill="#743744"/>
    <path d="M634.37,217.07c3.77,1.31,9.29-.41,11.71,1.13-1.08,5.21-6.41,5.36-11.01,5l-6.97-.54c-4.35-.34.21-8.62,1.19-10.97l6.16-14.82,4.82-12.78c.77-2.05,2.5-3.22,4.86-3.23,4.3-.02,8.72.29,13.18.89,1.3,1.14-.12,4.46-2.05,4.54l-9.78.42-3.01,6.41c-.54,1.14-1.01,2.17-1.48,3.35l7.14.94c.5,1.54-.14,3-.89,3.71-2.44,2.3-5.1.31-8.72,1.41l-5.14,14.53Z" fill="#743744"/>
    <path d="M534.78,217.07c3.77,1.31,9.29-.41,11.71,1.13-1.08,5.21-6.41,5.36-11.01,5l-6.97-.54c-4.35-.34.21-8.61,1.19-10.97l6.16-14.82,4.82-12.78c.77-2.05,2.5-3.22,4.86-3.23,4.3-.02,8.72.29,13.18.89,1.31,1.13-.13,4.46-2.05,4.54l-9.78.42-3.02,6.41c-.54,1.14-1.01,2.17-1.48,3.35l7.14.94c.51,1.53-.14,3-.89,3.71-2.45,2.3-5.1.31-8.72,1.41l-5.14,14.53Z" fill="#743744"/>
    <path d="M319.27,217.07c3.78,1.31,9.26-.41,11.71,1.13-1.1,5.21-6.41,5.36-11.01,5l-6.97-.54c-4.35-.34.21-8.61,1.19-10.97l6.16-14.82,4.82-12.78c.77-2.05,2.5-3.22,4.86-3.23,4.3-.02,8.72.29,13.18.89,1.31,1.13-.13,4.46-2.05,4.54l-9.78.42-3.01,6.41c-.54,1.14-1.02,2.17-1.48,3.35l7.14.95c.53,1.49-.15,3.01-.89,3.7-2.47,2.3-5.09.31-8.72,1.41l-5.14,14.53Z" fill="#743744"/>
    <path d="M370.11,222.5c-5.54.82-.08-9.51.41-10.7l8.57-20.7,1.76-3.55c.11-.21-.07-1.28-.3-1.36-1.71-.65-4.51.19-7.41-.69.68-3.59,3.56-5.33,6.89-5.2l14.19.56c.53.02,1.58.47,1.86.88.33.47.2,1.75-.02,2.33-1.71,4.54-5.22,1.9-8.5,2.66-4.61,10.5-8.67,20.88-12.46,31.63-.79,2.24-2.69,3.8-5,4.14Z" fill="#743744"/>
    <path d="M601.1,222.5c-5.54.82-.08-9.51.41-10.7l8.57-20.7,1.76-3.55c.1-.21-.07-1.28-.3-1.36-1.72-.65-4.51.19-7.41-.69.68-3.59,3.56-5.33,6.89-5.2l14.19.56c.53.02,1.58.47,1.86.88.33.47.19,1.75-.02,2.33-1.72,4.55-5.21,1.9-8.5,2.66-4.61,10.5-8.67,20.88-12.46,31.63-.79,2.24-2.69,3.8-5,4.14Z" fill="#743744"/>
    <path d="M402.14,221.13c-1.04,1.41-4.74,2.12-5.32.18-.96-3.21,1.38-6.56,2.58-9.46l6.35-15.36,4.67-12.44c.98-2.6,2.77-3.47,5.67-3.28l1.69.11c.46.03.47,1.49.27,1.95l-3.78,9.16c-3.37,8.17-6.74,15.98-9.48,24.38-.56,1.73-1.43,3.12-2.65,4.77Z" fill="#743744"/>
  </g>
  <g>
    <g>
      <path d="M537.52,83.23c-1.57-.1-2.56.26-3.18,1.48l-5.77,11.38c-1.25,2.46-3.71,4.12-6.62,3.61-.44-.08-1.35-.65-1.53-1.05-.5-1.12,1.29-2.8,2.59-5.44,1.16-2.35,2.28-4.62,3.71-6.8,2.12-3.24,3.27-6.73,5.01-10.16,2.68-5.29,5.72-10.18,8.03-15.68.6-1.44,1.89-2.05,3.41-2.17,3.39-.27,9.81-1,12.16,1.3.41.41.44,1.76.31,2.45l-3.36,19.23-1.57,9.75c-.51,3.15-1.18,8.14-4.18,9.06-1.12.34-3.07,0-3.6-1.27-1.1-2.63,3.04-10.91,2.79-15.14l-8.22-.55ZM547.37,78.16l2.14-12.97c-2.12-1.09-4.84-1.24-6.61-.05-1.86,4.16-3.39,7.94-4.77,12.35l9.23.67Z" fill="#743744"/>
      <path d="M465.97,83.64c-1.77-.11-2.71.36-3.38,1.75-2.07,4.26-4.04,8.37-6.5,12.45-1.22,2.03-6.14,3.48-7.23,1.17-.19-.41.09-1.21.41-1.7.26-.41,7.86-14.04,7.71-13.71l3.25-7.22c2.4-5.33,5.6-10,7.96-15.38.64-1.45,1.89-2.1,3.43-2.21,3.32-.24,9.92-1.01,12.17,1.3.41.42.42,1.78.3,2.48l-3.29,18.87-1.7,10.48c-.56,3.45-1.31,8.81-5.15,8.85-.8,0-2.54-.76-2.69-1.63-.56-3.46,2.98-10.37,2.96-14.96l-8.24-.52ZM475.81,78.57l2.15-12.95c-2.08-1.09-4.6-1.26-6.55-.2-1.88,4.11-3.48,8-4.83,12.49l9.23.67Z" fill="#743744"/>
      <path d="M270.55,83.64c-1.77-.11-2.71.36-3.38,1.75-2.07,4.26-4.04,8.37-6.5,12.45-1.22,2.02-6.13,3.48-7.23,1.17-.19-.4.09-1.21.41-1.7.26-.4,7.86-14.04,7.71-13.71l3.25-7.22c2.4-5.33,5.6-10,7.96-15.38.64-1.45,1.89-2.1,3.43-2.21,3.32-.24,9.92-1.01,12.17,1.3.41.42.42,1.78.3,2.48l-3.29,18.87-1.7,10.48c-.56,3.45-1.31,8.81-5.15,8.85-.8,0-2.54-.76-2.69-1.63-.56-3.46,2.98-10.37,2.96-14.96l-8.24-.52ZM280.39,78.57l2.15-12.95c-2.08-1.09-4.6-1.26-6.55-.2-1.88,4.11-3.48,8-4.83,12.49l9.23.67Z" fill="#743744"/>
      <path d="M374.72,99.48c-1.95.86-5.2,1-6.99.09-3.98-2.02-5.14-7.03-3.77-11.04,1.1-3.22,2.52-6.02,3.83-9.12l5.46-12.92c2.5-5.91,7.58-9.42,13.9-9.54,3.6-.07,6.47,2.1,7.07,5.86.35,2.23-.14,4.83-1.13,7.03l-8.79,19.77c-1.91,4.3-4.95,7.82-9.58,9.86ZM379.18,87.34c2.29-5.12,4.17-10.2,6.2-15.46,1.02-2.64,2.24-5.34,1.56-8.31-.21-.9-2.65-1.09-3.55-.74-2.47.95-3.79,5.24-4.85,7.54l-4.47,9.73c-1.07,2.32-5.16,11.1-3,12.65,2.64,1.9,6.66-2.14,8.12-5.41Z" fill="#743744"/>
      <path d="M574.33,99.48c-1.95.86-5.2,1-6.99.09-3.98-2.02-5.14-7.03-3.77-11.04,1.1-3.22,2.52-6.02,3.83-9.12l5.46-12.92c2.5-5.91,7.58-9.42,13.9-9.54,3.6-.07,6.47,2.1,7.07,5.86.35,2.23-.14,4.83-1.13,7.03l-8.79,19.77c-1.91,4.3-4.95,7.82-9.58,9.86ZM578.79,87.34c2.29-5.12,4.17-10.2,6.2-15.46,1.02-2.64,2.24-5.34,1.56-8.31-.2-.89-2.67-1.09-3.55-.74-2.53.98-3.89,5.46-4.99,7.85l-4.35,9.42c-1.07,2.32-5.16,11.1-3,12.65,2.64,1.9,6.66-2.14,8.12-5.41Z" fill="#743744"/>
      <path d="M510.7,85.3c6.76.67-2.13,11.09-4.12,13.1-1.35,1.37-3.12,1.86-5.01,2.21.95,3.72-1.54,7.07-5.27,7.2-1.99.07-4.04-1.6-3.83-3.75.08-.86,1.95-2.01,2.57-1.82.41.54,1,1.47,1.41,1.61.6.2,1.64-.91,1.74-1.49.11-.66-.32-2.08-.93-2.49-4.51-3.07-6.6-7.94-5.52-13.34.65-3.23,1.92-6.19,3.25-9.21l6.15-14.01c2.25-5.13,7.91-7.01,13.18-5.66,2.04.52,3.93,1.74,4.76,3.15,1.23,2.1.65,4.21.16,6.32-.67,2.89-3.09,4.95-6.22,3.86-.71-1.64,3.01-5.37.84-6.95-2.81-2.04-6.44-.53-7.81,2.42l-7.09,15.21c-1.92,4.11-2.5,10.72,1.74,12.04,3.71,1.16,5.86-3.65,7.26-6.42.58-1.15,1.53-2.09,2.74-1.97Z" fill="#743744"/>
      <path d="M329.93,96.62c-3.05-6.54,2.76-14.74,6.56-13.72,1.01.27,2.7,1.35,2.16,2.81-.71,1.87-4.35,3.17-3.81,5.9.13.63,1,1.51,1.79,1.85,3.01,1.31,6.54-.14,7.73-3.26,2.46-6.43.79-10.71-2.94-16.13-1.79-2.61-2.09-5-1.75-8.1.44-3.88,2.74-7.04,7.1-7.29,4.06-.23,8.46.26,12.68.94.32,3.19-2.52,5.32-5.38,5.15l-5.13-.3c-.55-.03-1.57.25-1.9.63-2.88,3.3,4.5,9.56,4.98,21.4.13,3.19-.91,5.84-2.69,8.3-5.55,7.74-16.99,7-19.41,1.81Z" fill="#743744"/>
      <path d="M296.46,96.62c-3.05-6.54,2.76-14.73,6.56-13.72,1.01.27,2.7,1.35,2.16,2.81-.77,1.96-4.31,3.09-3.81,5.91.11.64,1,1.5,1.79,1.84,3,1.31,6.53-.14,7.73-3.26,2.46-6.43.79-10.71-2.94-16.13-1.79-2.61-2.1-5-1.74-8.1.44-3.88,2.73-7.04,7.11-7.28,3.97-.22,8.57.19,12.61.99.51,3.04-2.56,5.29-5.3,5.12l-5.16-.33c-.54-.03-1.57.26-1.9.64-2.88,3.3,4.5,9.56,4.98,21.4.13,3.19-.91,5.83-2.69,8.3-5.55,7.74-16.99,7-19.41,1.81Z" fill="#743744"/>
      <path d="M407.19,94.23c6.02,1.9,6.51-8.76,10.15-8.4.93.09,2.73.93,2.64,1.98-.3,3.61-5.18,10.61-8.66,12.49-2.13,1.15-5.54,1.05-7.66-.18-4.22-2.45-6.05-7.56-5.34-12.31.52-3.42,1.82-6.39,3.17-9.5l6.2-14.22c2.27-5.21,7.85-7.26,13.25-5.91,2.02.51,3.91,1.71,4.76,3.07,1.31,2.1.7,4.2.26,6.31-.61,2.92-3.03,4.99-6.06,4.06-1.26-1.32,2.76-5.25.79-6.87-2.71-2.23-6.57-.71-7.95,2.27l-7.26,15.6c-1.91,4.1-1.92,10.48,1.71,11.63Z" fill="#743744"/>
      <path d="M435.17,98.87c-1.04,1.41-4.74,2.13-5.32.18-.96-3.21,1.38-6.56,2.58-9.46l6.35-15.36,4.67-12.44c.98-2.6,2.77-3.47,5.67-3.28l1.69.11c.46.03.47,1.49.27,1.95l-3.78,9.16c-3.37,8.17-6.74,15.98-9.48,24.38-.56,1.73-1.43,3.12-2.65,4.77Z" fill="#743744"/>
      <path d="M557.59,52.05c-2.52,2.14-5.49,2.39-8.28,1.12-4.12-1.88-6.11,2.03-7.25-.49-.34-.76.12-1.81.89-2.29,6.43-4.02,7.41,2.71,12.63-.63.69-.18,1.66,1.16,2.02,2.3Z" fill="#743744"/>
    </g>
    <g>
      <path d="M663.76,100.34c-1.95.86-5.2,1-6.99.09-3.98-2.02-5.14-7.03-3.77-11.04,1.1-3.22,2.52-6.02,3.83-9.12l5.46-12.92c2.5-5.91,7.58-9.42,13.9-9.54,3.6-.06,6.47,2.1,7.07,5.86.35,2.23-.14,4.83-1.13,7.03l-8.79,19.77c-1.91,4.3-4.95,7.82-9.58,9.86ZM668.22,88.19c2.29-5.12,4.17-10.2,6.2-15.46,1.02-2.64,2.24-5.34,1.57-8.31-.2-.89-2.67-1.09-3.55-.74-2.53.99-3.89,5.46-4.99,7.85l-4.48,9.7c-1.06,2.3-4.99,10.85-2.87,12.38,2.64,1.9,6.66-2.14,8.12-5.41Z" fill="#743744"/>
      <path d="M631.76,99.46c-1.56.36-14.82,2.69-13.69-1.17.4-3.25,1.86-5.88,3.1-8.85l6.14-14.77,4.97-13.13c1.3-3.45,5.98-3.02,7.71-2.4,3.93,1.41,6.49,5.02,7.22,9.15,1.49,8.37-.76,16.85-5.72,23.71-2.43,3.37-5.57,6.5-9.74,7.48ZM633.8,92.12c4.02-3.07,6.43-6.57,7.8-11.28,1.3-4.5,3.03-14.35-3.21-16.35-4.68,10.27-8.37,19.16-11.99,29.87,2.89,1.74,5.13-.49,7.41-2.24Z" fill="#743744"/>
      <path d="M686.77,97.48c-3.05-6.54,2.76-14.74,6.56-13.72,1.01.27,2.7,1.35,2.16,2.81-.74,1.92-4.33,3.13-3.81,5.91.12.64,1,1.5,1.79,1.85,3.01,1.31,6.54-.14,7.73-3.26,2.46-6.43.79-10.71-2.94-16.13-1.79-2.61-2.09-5-1.74-8.1.44-3.88,2.74-7.04,7.1-7.29,4.06-.23,8.46.26,12.68.94.32,3.19-2.52,5.32-5.38,5.15l-5.13-.3c-.55-.03-1.57.25-1.9.63-2.88,3.3,4.5,9.56,4.98,21.4.13,3.19-.91,5.83-2.69,8.3-5.55,7.74-16.99,7-19.41,1.81Z" fill="#743744"/>
    </g>
  </g>
  <g>
    <path d="M286.13,168.03c-.35-2.95-1.48-13.86-5.84-12.8-6.6,1.6-12.98,3.71-19.43,6.27l-1.39,5.08c-1.71,6.25-6.42,4.22-17.69,4.26-.8,0-2.2-.54-2.52-1.17-.32-.63-.61-2.5-.33-3.37,2.74-8.56,5.37-17.91,7.41-27.02,1.85-8.28,3.35-16.14,5.75-24.24.57-1.91,2.7-3.16,4.55-3.17l31.12-.08c3.21,0,5.04,1.71,5.96,4.52,3.07,9.31,5.94,26.33,7.3,36.38.72,5.32,5.53,18.29.64,18.29h-12.67c-1.55-.02-2.69-1.42-2.87-2.93ZM280.71,139.95c-.24-4.95-.61-8.83-2.22-12.75-3.79-.54-7.5-.47-11.31-.06-1.94,5.67-3.35,11.1-4.02,16.96,1.03.67,3.02.87,4.02.53l13.52-4.67Z" fill="#743744"/>
    <path d="M794.74,151.09c-2.79,14.12-18.9,21.45-32.04,19.49-4.29-.64-8.81-.98-12.62-2.95-5.65-2.92-8.9-8.09-11.64-13.63-4.54-9.17-5.2-19.49-.73-28.78,3.99-3.97,7.87-7.73,12.35-11.05,3.82-2.83,8.63-3.47,13.22-4.29,4.75-.85,8.78-.16,13.21,1.44,4.97,1.78,9.44,3.89,12.86,8.11,5.05,9.01,9.97,21.59,5.4,31.68ZM775.27,148.79c3.16-3.06,6.07-13.25.66-18.64-4.78-4.76-16.33-2.54-20.07,3.59-2.89,4.74-2.82,12.28,1.71,16.14,4.92,4.2,13.09,3.36,17.7-1.09Z" fill="#743744"/>
    <path d="M354.64,171.15c-6.42.06-5.32-18.08-11.97-15.32l-7.36,3.06c-1.08,2.16.4,11.42-2.42,11.74-5.37.62-15.43,2.26-15.45-3.71l-.09-25.39c-.03-8.36-.12-16.5.38-24.83.19-3.16,2.67-5.16,5.57-5.21l21.35-.37c12.83-.22,18.15,1.09,23.11,11.85,3.39,7.37,3.57,16.23-2.28,22.36-.8.84-3.35,2.18-3,3.44l2.51,9.15c1.98,7.22,6.31,13.06,1.27,13.11l-11.61.11ZM349.67,136.65c2.85-2.45,1.57-8.62-1.32-10.38-3.45-2.11-13.43-2.17-13.51,2.24l-.22,12.04c-.01.54.49,1.53.89,1.8,1.61,1.08,11.78-3.66,14.16-5.7Z" fill="#743744"/>
    <path d="M420.44,171.15c-6.43.06-5.3-18.07-11.98-15.31l-7.33,3.03c-1.14,2.15.4,11.43-2.45,11.76-5.37.62-15.43,2.26-15.45-3.71l-.09-25.39c-.03-8.36-.12-16.5.38-24.83.19-3.16,2.67-5.16,5.57-5.21l21.35-.37c12.84-.22,18.15,1.09,23.11,11.85,3.39,7.37,3.57,16.23-2.28,22.36-.8.84-3.35,2.18-3,3.44l2.51,9.15c1.98,7.22,6.31,13.06,1.27,13.11l-11.61.11ZM415.47,136.65c2.85-2.45,1.57-8.62-1.32-10.38-3.45-2.11-13.43-2.17-13.51,2.24l-.22,12.04c-.01.55.49,1.53.89,1.8,1.62,1.08,11.79-3.66,14.16-5.7Z" fill="#743744"/>
    <path d="M708.16,171.15c-6.42.06-5.32-18.08-11.97-15.32l-7.37,3.06c-1.07,2.16.41,11.41-2.42,11.74-5.37.62-15.43,2.26-15.45-3.71l-.09-25.39c-.03-8.36-.12-16.5.38-24.83.19-3.16,2.67-5.17,5.57-5.21l21.35-.37c12.84-.22,18.15,1.09,23.11,11.85,3.39,7.37,3.57,16.23-2.28,22.36-.8.84-3.35,2.18-3,3.44l2.51,9.14c1.98,7.22,6.31,13.06,1.27,13.11l-11.61.11ZM703.19,136.65c2.85-2.45,1.57-8.62-1.32-10.38-3.45-2.11-13.43-2.17-13.51,2.24l-.22,12.03c-.01.55.49,1.53.89,1.8,1.62,1.08,11.78-3.66,14.16-5.7Z" fill="#743744"/>
    <path d="M226.02,167.95c-.03,1.2-1.82,2.96-2.89,2.98l-10.16.2c-2.39.05-4.25-1.91-4.27-4.18l-.14-20.2c-5.73,1.57-9.82,2.86-14.93,4.59-1.21.41-2.08,3.39-2.12,4.71l-.33,11.58c-.03.98-1.35,3.13-2.39,3.19-6.01.34-14.87,1.96-14.9-3.91l-.17-30.52c-.04-6.67.08-13.12.45-19.69.17-2.92,2.41-4.99,5.06-5.17l8.14-.54c7.66-.51,3.26,18.09,4.83,24.32.13.51,1.81.85,2.35.7l12.18-3.55c.94-.27,1.73-2.47,1.78-3.46l.57-12.72c.12-2.58,2.51-4.6,4.82-4.74l8.77-.54c2.19-.14,3.61,1.75,3.76,3.88.64,9.12.38,17.92.18,27.03l-.57,26.04Z" fill="#743744"/>
    <path d="M128.14,149.73c4.95,4.42,12.42,3.3,17.22-.26,1.82-1.35,3.84-1.77,5.74-.17,3.01,2.53,5.83,5.25,8.57,8.14,5.95,6.29-12.56,12.86-19.19,13.28-6.1.38-12.72-.41-18.38-2.59-12.11-4.65-22.16-28.67-13.33-42.71,2.86-4.55,7.93-7.89,12.01-11.2,3.76-3.04,8.67-3.49,13.21-4.34s8.48-.21,12.77,1.26c6.11,2.09,11.62,4.95,15.07,10.78,1.13,1.92.33,4.62-1.41,6.14-4.19,3.66-8.28,7.75-11.87,11.84-.67.77-2.65,2.22-3.32,1.57l-4.35-4.18c-3.35-3.22.34-6.37-1.01-8.63-1.43-2.41-10.33-.32-13.66,5.81-2.46,4.52-2.28,11.5,1.93,15.25Z" fill="#743744"/>
    <path d="M815.63,166.91c-1.94-1.01-12.09-9.4-8.06-14.34,2.67-3.27,7.25-10.04,10.78-6.06,3.26,3.69,6.82,7.09,11.55,8.87,2.75,1.03,7.15.17,9.36-1.59,1.47-1.17-.41-4.1-1.78-4.72l-16.13-7.26c-3.16-1.42-6.28-3.83-8.78-6.1-5.16-4.67-5.43-11.38-1.77-17.1,2.77-4.33,7.36-6.66,12.53-7.93,8.88-2.17,17.76-.7,26.52,1.95,1.36.41,2.98,1.01,3.91,1.88.84.77.96,3.18.64,4.4l-1.69,6.45c-.27,1.03-1.34,2.63-2.23,2.95s-3.1.18-3.99-.31c-4.59-2.49-12.84-7.48-17.84-2.23-.63.66.61,2.71,1.4,3.03l18.32,7.62c8.01,3.33,12.92,12.08,9.62,20.47-3.01,7.63-9.4,14.15-17.87,14.94-8.22.77-16.95-1.02-24.49-4.95Z" fill="#743744"/>
    <path d="M468.5,148.99c-1.65.14-1.53,5.48,0,5.81l21.55.45c1.96.04,3.74,2.27,3.87,3.99l.57,7.72c.16,2.17-1.45,3.8-3.65,3.92-6.53.38-12.86,0-19.45-.02l-18-.06c-2.67,0-4.34-1.88-4.35-4.4l-.08-25.35c-.02-5.53-1.08-25.36,2.42-28.2,1.09-.88,3.59-1.04,5.06-1.04l11.42-.03c7.62-.02,14.71-.18,22.35.35,4.66.32,4.23,8.73,4.08,12.47-.16,4.1-22.13,1.71-26.02,2.04-.74,2.22-.85,5.37.12,7.27l17.36.85c.72,4.7.77,8.85.02,13.62-5.99.17-11.05.07-17.25.61Z" fill="#743744"/>
    <path d="M600.1,148.99c-1.64.14-1.53,5.47,0,5.82l21.54.44c1.96.04,3.74,2.27,3.86,3.99l.57,7.72c.16,2.16-1.45,3.8-3.65,3.92-6.53.38-12.86-.02-19.45-.03l-17.51-.02c-2.59,0-4.22-1.96-4.24-4.44l-.16-29.98c-.02-4.56-.9-23.88,3.44-24.31,12.06-.37,25.07-.69,36.75-.03,2.17.12,4.1,2.09,4.26,4.12l.57,7.21c.11,1.37-1.53,3.11-3.02,3.23-7.03.56-13.54.41-20.69-.02-.7-.04-2.65.29-2.93.86-.24,1.73-.09,5,.39,6.44l17.52.85c.67,4.7.75,8.85,0,13.62-6,.17-11.05.07-17.25.61Z" fill="#743744"/>
    <path d="M545.92,167.56c-.03,1.34-1.61,3.32-2.79,3.35l-10.71.19c-2.16.04-3.8-2.07-3.81-4.19l-.26-38.12-17.56-.59c-1.23-.04-2.59-1.34-3.12-2.43l-.13-11.2c-.02-2.05,2.23-3.65,4.19-3.66l30.87-.15c6.53-.03,12.64.15,19.22.45,2,.09,4.8,1.77,4.99,3.75l.91,9.56c.13,1.4-1.11,3.74-2.62,3.89-6.27.64-11.91.71-18.38.74l-.32,13.82-.48,24.58Z" fill="#743744"/>
    <path d="M653.8,170.91l-10.72.18c-2.22.04-3.73-2.09-3.85-4.17l-.15-29.92c-.03-6.88.06-13.52.44-20.29.17-2.92,2.41-4.99,5.06-5.17l8.09-.54c2.5-.17,4.11,1.41,4.29,3.95.66,9.16.3,18.16.11,27.43l-.51,25.23c-.03,1.31-1.64,3.29-2.79,3.31Z" fill="#743744"/>
  </g>
</svg>